<?xml version="1.0" standalone="no"?>
<!DOCTYPE svg PUBLIC "-//W3C//DTD SVG 20010904//EN"
 "http://www.w3.org/TR/2001/REC-SVG-20010904/DTD/svg10.dtd">
<svg version="1.0" xmlns="http://www.w3.org/2000/svg"
 width="1866.000000pt" height="2479.000000pt" viewBox="0 0 1866.000000 2479.000000"
 preserveAspectRatio="xMidYMid meet">

<g transform="translate(0.000000,2479.000000) scale(0.100000,-0.100000)"
fill="#000000" stroke="none">
<path d="M8285 24337 c-268 -52 -479 -165 -650 -348 -150 -160 -252 -376 -286
-604 -26 -174 -16 -428 27 -644 76 -383 253 -801 485 -1142 21 -32 39 -62 39
-67 0 -5 -51 -21 -112 -36 -127 -31 -308 -96 -431 -155 -198 -95 -447 -267
-614 -425 l-92 -87 -178 60 c-182 62 -299 95 -458 131 -49 11 -108 24 -130 29
-46 11 -200 34 -326 50 -367 47 -674 -53 -919 -299 -69 -68 -185 -223 -269
-357 -31 -50 -35 -53 -75 -53 -22 0 -96 -7 -163 -15 -396 -46 -635 -142 -890
-358 -267 -224 -447 -576 -508 -989 l-18 -118 -46 0 c-55 -1 -282 -25 -366
-40 -165 -29 -385 -122 -540 -228 -102 -70 -265 -235 -333 -337 -103 -154
-201 -382 -237 -555 -48 -227 -61 -562 -30 -775 22 -152 24 -144 -51 -200 -98
-72 -243 -217 -322 -325 -118 -158 -210 -365 -248 -560 -20 -103 -20 -353 1
-449 53 -251 157 -442 338 -622 97 -97 99 -99 84 -122 -89 -136 -200 -388
-251 -572 -34 -118 -64 -232 -69 -260 -4 -16 -13 -63 -22 -104 -150 -701 -185
-1665 -101 -2784 9 -108 18 -218 21 -245 70 -613 102 -845 180 -1282 14 -80
32 -181 40 -225 17 -98 92 -449 130 -610 8 -33 26 -109 40 -170 26 -112 31
-131 84 -335 136 -518 386 -1299 536 -1675 13 -33 54 -139 90 -235 71 -185
169 -428 210 -520 13 -30 56 -129 96 -220 39 -91 147 -318 240 -505 285 -574
544 -1007 881 -1471 303 -416 720 -876 1067 -1174 194 -167 242 -206 381 -310
69 -51 141 -105 160 -119 195 -147 613 -394 924 -545 624 -304 1297 -511 2096
-646 51 -9 168 -25 360 -49 390 -50 768 -70 1320 -70 829 0 1380 51 2065 191
55 11 119 24 141 29 174 34 594 153 779 219 28 10 104 37 170 61 66 23 149 55
183 71 35 15 68 28 72 28 5 0 37 13 72 29 35 15 92 41 128 57 120 52 424 207
554 282 369 212 716 458 1041 737 132 113 472 445 581 565 223 248 337 389
573 710 114 154 368 545 471 725 167 290 373 683 482 920 25 55 63 136 83 180
137 297 362 854 491 1215 25 69 58 162 75 206 73 199 223 667 301 939 106 369
227 854 292 1170 58 279 103 513 115 595 5 36 19 117 30 180 42 236 76 489
126 930 55 489 78 915 79 1460 0 516 -11 739 -60 1165 -70 605 -223 1139 -407
1428 l-37 58 83 82 c169 167 274 360 312 574 21 124 20 328 -4 450 -70 359
-292 697 -619 943 -52 39 -81 68 -78 76 34 88 42 620 13 784 -86 473 -276 787
-624 1033 -117 82 -334 171 -498 203 -87 17 -314 44 -377 44 -27 0 -48 3 -48
6 0 3 -5 38 -11 77 -58 392 -202 714 -422 939 -251 259 -546 393 -976 443
-130 15 -123 11 -196 126 -220 355 -464 539 -790 594 -289 50 -845 -49 -1400
-249 -55 -20 -104 -36 -110 -36 -5 1 -48 37 -95 82 -254 241 -533 419 -839
533 -66 25 -127 45 -134 45 -8 0 -33 6 -55 14 -64 23 -253 54 -407 67 -119 10
-165 9 -303 -5 -161 -16 -182 -15 -182 6 0 15 -101 215 -164 323 -91 157 -177
346 -218 480 -64 210 -114 484 -143 790 -27 276 -49 430 -76 535 -104 393
-313 582 -729 656 -85 15 -330 16 -405 1z m440 -282 c39 -8 107 -33 153 -55
105 -50 174 -118 224 -221 57 -116 77 -222 123 -634 58 -521 96 -706 215
-1030 27 -73 138 -301 180 -370 43 -69 174 -337 200 -410 12 -33 29 -78 37
-100 20 -53 55 -171 78 -265 49 -201 66 -302 101 -580 7 -63 17 -218 21 -344
l6 -229 -54 7 c-30 3 -108 13 -174 22 -239 30 -782 29 -961 -2 l-32 -6 -5 244
c-5 266 -13 324 -70 523 -21 75 -74 196 -128 296 -27 50 -49 92 -49 95 0 2
-12 22 -26 44 -15 22 -25 43 -22 45 2 3 38 1 79 -5 41 -5 120 -10 177 -10
l104 0 -23 38 c-13 20 -50 72 -84 116 -33 43 -71 93 -85 112 -14 18 -52 67
-85 110 -33 42 -69 89 -80 103 -11 14 -48 62 -82 106 -86 111 -91 118 -164
225 -268 395 -415 740 -494 1164 -20 107 -23 382 -6 471 25 124 89 292 138
361 12 17 39 42 60 56 21 13 56 36 78 51 50 33 106 53 215 78 69 15 111 18
225 14 77 -2 172 -11 210 -20z m1915 -2787 c184 -23 391 -88 578 -182 172 -86
297 -171 464 -316 l87 -74 -132 -66 c-73 -36 -141 -71 -152 -77 -11 -7 -65
-38 -120 -69 -283 -161 -560 -354 -845 -588 -47 -39 -87 -73 -90 -76 -14 -16
-73 -60 -80 -60 -4 0 -10 98 -13 218 -8 310 -25 506 -67 737 -6 33 -15 87 -21
120 -12 73 -71 299 -98 378 -11 31 -17 58 -13 58 4 1 57 5 117 8 129 8 266 4
385 -11z m-2474 -130 c277 -419 344 -566 385 -853 14 -93 19 -469 7 -480 -4
-4 -44 -16 -89 -26 -93 -22 -73 -29 -179 65 -30 27 -77 66 -105 87 -27 21 -79
61 -115 89 -321 252 -750 519 -1056 656 -46 21 -84 41 -84 45 0 7 99 94 164
144 174 132 402 256 589 320 128 43 296 83 353 84 l42 1 88 -132z m-2606 -309
c322 -38 701 -136 1035 -269 472 -187 998 -498 1386 -820 37 -30 79 -65 95
-76 16 -12 27 -24 24 -26 -3 -3 -161 -83 -352 -177 -192 -95 -348 -174 -348
-176 0 -2 8 -1 18 1 9 2 231 47 492 99 261 52 552 110 645 130 500 104 1127
108 1583 10 64 -14 151 -32 192 -40 101 -19 201 -41 280 -59 61 -15 233 -51
360 -75 30 -6 98 -20 150 -31 171 -36 261 -50 272 -44 12 8 -579 307 -652 330
-55 17 -88 41 -74 53 5 5 65 53 134 108 424 336 867 596 1335 785 238 96 561
193 760 229 458 82 596 79 801 -16 112 -51 240 -155 298 -241 11 -17 49 -72
83 -122 92 -133 204 -334 234 -417 4 -11 25 -63 47 -115 179 -422 297 -833
391 -1365 27 -153 42 -258 71 -495 13 -102 38 -410 46 -550 l6 -115 -71 -43
c-151 -92 -318 -281 -439 -497 -137 -245 -258 -614 -267 -815 -2 -41 -6 -151
-10 -245 -13 -312 31 -623 127 -910 100 -298 276 -563 494 -741 41 -34 42 -37
32 -67 -6 -18 -14 -36 -18 -40 -4 -5 -53 14 -109 42 -406 204 -881 287 -1346
236 -337 -38 -688 -166 -935 -342 -164 -118 -372 -341 -445 -476 -11 -20 -25
-37 -32 -37 -7 0 -43 13 -80 29 -38 16 -97 40 -133 54 -36 14 -105 41 -155 61
-394 153 -710 252 -840 262 -92 7 -199 -20 -325 -83 -86 -44 -237 -138 -307
-192 -107 -83 -132 -101 -142 -101 -6 0 -74 25 -152 56 -177 69 -249 86 -365
85 -116 0 -188 -17 -361 -85 -77 -31 -143 -56 -147 -56 -3 0 -52 34 -107 77
-281 212 -503 312 -664 299 -130 -10 -455 -112 -840 -263 -49 -19 -119 -47
-155 -60 -36 -14 -98 -39 -139 -56 -52 -22 -76 -28 -79 -19 -2 6 -36 58 -76
114 -203 286 -482 492 -842 623 -333 121 -777 157 -1154 94 -208 -35 -474
-121 -662 -215 l-108 -53 -15 36 c-8 19 -15 38 -15 42 1 3 21 22 46 41 53 41
205 198 237 244 71 105 99 150 140 231 90 175 155 367 198 590 56 288 56 691
0 950 -33 151 -44 194 -75 286 -18 57 -42 124 -52 149 -33 79 -160 323 -198
379 -103 152 -231 283 -355 365 l-73 49 7 121 c6 110 17 234 46 535 32 334
120 807 211 1141 141 513 310 910 531 1245 163 247 284 350 494 421 125 42
210 47 413 23z m-1380 -724 c0 -3 -20 -47 -44 -98 -230 -480 -415 -1205 -501
-1966 -25 -214 -44 -464 -45 -562 l0 -47 -84 5 c-143 9 -312 -29 -461 -105
-181 -91 -388 -287 -518 -489 -37 -58 -142 -279 -158 -330 -14 -50 -9 -50
-155 -23 -60 11 -115 20 -122 20 -8 0 78 -95 190 -211 203 -211 293 -322 351
-434 52 -99 98 -216 108 -270 4 -27 16 -81 25 -120 22 -98 22 -421 0 -520 -9
-38 -19 -85 -23 -102 -3 -18 -11 -37 -17 -42 -10 -8 -76 -17 -311 -42 -55 -6
-102 -13 -104 -15 -10 -9 23 -25 234 -109 121 -49 245 -105 275 -126 108 -74
194 -181 241 -303 28 -72 30 -89 30 -196 0 -80 -8 -162 -25 -256 -13 -77 -27
-160 -31 -186 -3 -27 -11 -48 -16 -48 -6 0 -30 14 -54 30 -24 17 -47 30 -50
30 -4 0 -62 34 -129 77 -562 355 -975 673 -1380 1063 -137 131 -131 126 -212
185 -118 85 -236 221 -294 336 -87 170 -118 374 -86 554 32 176 56 253 118
370 68 128 246 323 370 403 63 41 68 42 109 33 176 -40 232 -51 236 -47 3 3
-37 58 -88 123 -93 118 -94 118 -106 198 -54 349 -38 694 46 943 114 340 315
568 618 701 109 47 273 89 381 97 42 2 100 7 127 9 28 2 73 2 101 -1 l50 -6
47 -82 c26 -44 81 -135 122 -201 42 -66 79 -127 84 -135 19 -31 24 2 13 85 -7
47 -17 124 -23 173 -6 48 -15 114 -20 148 -14 90 -11 298 6 389 106 592 408
938 928 1064 67 16 136 32 152 34 48 6 95 7 95 2z m10482 -20 c414 -87 693
-298 858 -648 55 -118 72 -166 105 -297 53 -209 55 -358 10 -710 -14 -107 -25
-203 -25 -212 0 -30 15 -20 40 25 13 23 55 92 94 152 66 104 70 113 71 170 l1
60 74 6 c41 3 138 2 215 -3 369 -21 671 -174 875 -443 229 -303 313 -792 224
-1305 -15 -87 -27 -113 -209 -453 -73 -137 -80 -139 188 60 76 57 143 103 148
103 23 0 110 -70 210 -170 160 -158 238 -276 296 -443 97 -283 106 -439 36
-647 -58 -170 -158 -304 -319 -425 -38 -29 -122 -102 -185 -162 -472 -446
-993 -833 -1564 -1160 -33 -19 -66 -39 -73 -45 -7 -6 -15 -9 -17 -6 -5 5 -23
103 -57 303 -19 119 -17 288 6 355 41 122 140 254 247 327 46 32 150 78 364
163 131 52 180 80 140 80 -11 0 -58 5 -105 10 -47 5 -128 14 -180 20 -142 15
-124 -4 -162 180 -17 85 -17 378 0 495 30 197 112 387 243 564 26 35 136 155
245 268 108 112 194 206 192 209 -3 2 -58 -5 -122 -16 -65 -11 -124 -20 -131
-20 -7 0 -18 15 -25 33 -6 17 -16 40 -21 49 -5 10 -9 23 -9 28 0 6 -19 50 -42
98 -124 258 -325 486 -544 619 -150 91 -344 146 -504 142 l-85 -2 -7 84 c-36
443 -47 555 -73 729 -37 248 -53 350 -64 400 -5 25 -18 92 -30 150 -30 152
-77 344 -112 465 -53 179 -82 274 -99 320 -76 207 -118 314 -161 403 -27 56
-49 104 -49 107 0 8 13 6 92 -10z m-11206 -2991 c30 -14 54 -28 51 -30 -2 -2
-30 1 -63 7 -70 13 -195 6 -278 -16 -32 -9 -60 -14 -62 -12 -6 6 72 47 129 68
67 25 147 19 223 -17z m12028 21 c53 -14 152 -63 144 -71 -2 -2 -31 4 -63 13
-65 18 -222 23 -293 10 -31 -5 -41 -4 -37 3 8 13 42 28 105 46 60 17 75 17
144 -1z m-613 -156 c-16 -30 -44 -87 -61 -128 -17 -41 -48 -97 -68 -125 -143
-191 -260 -446 -338 -739 l-34 -132 5 77 c3 42 12 105 19 140 8 34 19 88 26
118 40 185 145 426 265 610 58 87 201 247 212 237 2 -3 -9 -29 -26 -58z
m-10991 28 c47 -42 138 -152 183 -222 114 -178 195 -367 257 -603 18 -68 50
-273 49 -312 l-1 -35 -8 30 c-4 17 -15 64 -25 105 -20 86 -83 284 -113 350
-75 169 -142 290 -223 400 -26 36 -57 89 -68 118 -11 28 -36 83 -56 122 -37
74 -36 84 5 47z m-2387 -2720 c209 -181 466 -382 672 -525 72 -50 148 -104
170 -119 76 -54 474 -301 570 -354 17 -9 89 -49 160 -89 136 -75 442 -229 630
-317 l110 -51 18 -145 c23 -189 89 -393 174 -539 18 -31 33 -61 33 -67 0 -5
28 -52 62 -103 56 -83 261 -304 338 -364 99 -76 149 -110 250 -170 63 -38 133
-77 155 -86 22 -9 76 -32 120 -51 222 -95 488 -147 751 -147 335 0 610 75 851
233 76 50 263 239 322 325 l43 63 76 -73 c104 -99 255 -198 442 -290 298 -147
459 -211 940 -372 454 -152 654 -226 900 -332 47 -20 114 -49 150 -64 363
-154 867 -443 1173 -674 239 -180 538 -460 708 -661 525 -625 841 -1363 968
-2260 49 -346 55 -441 56 -905 0 -454 -3 -514 -46 -845 -73 -568 -215 -1084
-432 -1580 -73 -166 -223 -454 -301 -575 -112 -175 -234 -349 -306 -437 -14
-17 -41 -50 -60 -74 -153 -192 -441 -472 -656 -640 -152 -118 -556 -379 -587
-379 -5 0 -70 -30 -145 -66 -75 -36 -170 -79 -212 -95 -41 -16 -85 -34 -97
-39 -13 -6 -33 -14 -45 -20 -30 -12 -217 -73 -293 -95 -33 -9 -71 -21 -85 -25
-46 -14 -105 -29 -160 -41 -30 -6 -73 -15 -95 -20 -85 -19 -349 -61 -500 -81
-137 -18 -978 -18 -1125 0 -153 18 -248 31 -310 43 -135 25 -642 198 -817 279
-24 11 -45 20 -47 20 -17 0 -432 203 -576 281 -102 56 -360 215 -503 311 -111
75 -405 296 -437 328 -3 3 -30 25 -60 50 -136 111 -219 188 -431 400 -171 171
-415 439 -489 539 -14 19 -39 50 -56 70 -107 126 -412 559 -528 751 -15 25
-45 74 -68 110 -48 77 -238 407 -238 414 0 3 -14 29 -31 58 -62 104 -389 772
-389 793 0 2 -16 37 -34 78 -19 41 -47 103 -61 138 -15 35 -37 89 -50 119 -87
207 -152 371 -180 450 -13 36 -40 108 -60 160 -91 236 -242 673 -328 945 -13
44 -37 121 -51 170 -15 50 -31 101 -36 115 -5 14 -23 77 -40 140 -43 161 -48
178 -66 240 -9 30 -22 80 -29 110 -7 30 -24 100 -38 155 -34 131 -75 299 -86
355 -5 25 -19 88 -31 140 -12 52 -28 124 -35 160 -7 36 -37 189 -68 340 -58
289 -90 480 -132 795 -14 105 -28 204 -31 220 -4 27 -17 152 -44 425 -38 382
-49 584 -56 1080 -7 422 4 832 27 1060 53 521 119 869 229 1200 42 127 124
307 161 354 l21 26 100 -92 c55 -51 145 -133 201 -181z m16137 187 c147 -269
257 -691 329 -1274 50 -399 70 -950 52 -1455 -17 -497 -22 -555 -91 -1160 -11
-99 -31 -256 -45 -350 -13 -93 -26 -190 -29 -215 -5 -45 -27 -185 -66 -415
-76 -445 -226 -1121 -336 -1515 -19 -69 -44 -159 -56 -200 -106 -389 -323
-1034 -510 -1520 -267 -692 -550 -1298 -868 -1855 -91 -161 -213 -356 -326
-525 -148 -221 -244 -352 -409 -560 -327 -414 -791 -870 -1186 -1168 -98 -74
-179 -132 -268 -193 -128 -88 -130 -89 -202 -132 -35 -21 -95 -58 -134 -81
-38 -24 -106 -63 -150 -86 -44 -24 -96 -53 -115 -64 -45 -28 -335 -167 -453
-218 -383 -164 -791 -297 -1257 -407 -47 -11 -112 -25 -145 -32 -33 -6 -80
-15 -105 -20 -72 -14 -305 -54 -410 -70 -213 -32 -690 -78 -679 -65 4 4 49 18
100 31 292 75 671 226 931 371 108 60 311 189 363 230 17 14 35 28 40 32 149
112 357 313 456 440 99 128 108 141 197 266 292 415 511 891 711 1551 26 87
105 400 121 480 7 33 16 78 21 100 8 39 14 71 59 330 40 230 77 586 90 870 19
421 8 945 -26 1260 -8 77 -19 183 -25 235 -5 52 -19 145 -29 205 -11 61 -26
152 -35 203 -9 51 -23 123 -31 160 -8 37 -19 89 -24 116 -46 226 -205 741
-294 951 -192 450 -356 739 -585 1030 -315 400 -720 766 -1201 1084 -200 133
-171 115 -360 224 -221 129 -397 221 -635 332 -182 85 -513 218 -815 328 -8 3
17 6 55 6 455 7 1109 36 1378 61 62 6 182 17 267 25 162 16 549 65 706 90 133
22 128 23 158 -42 53 -114 84 -164 150 -241 258 -303 639 -462 1105 -462 516
0 1005 195 1389 554 150 140 333 417 411 621 50 134 101 365 101 464 0 36 3
40 48 59 26 11 132 61 235 111 103 50 191 91 194 91 3 0 54 26 112 59 58 32
142 78 186 101 117 62 373 209 422 242 23 15 44 28 47 28 3 0 32 16 63 37 488
309 866 596 1242 941 56 51 106 90 110 87 5 -3 28 -39 51 -81z m-12254 -455
c691 -67 1188 -431 1377 -1009 13 -41 27 -91 31 -110 5 -31 5 -32 -6 -12 -16
32 -28 27 -28 -12 0 -89 -62 -306 -118 -410 -104 -198 -270 -372 -446 -469
-57 -32 -56 -32 -56 -11 0 23 -24 11 -28 -13 -2 -15 -21 -27 -70 -46 -215 -84
-485 -115 -725 -86 l-92 12 0 146 c0 124 -4 158 -24 229 -33 115 -51 108 -51
-21 0 -142 -49 -317 -89 -317 -41 0 -235 71 -362 133 -214 105 -443 269 -485
348 -19 38 -70 193 -89 275 -9 38 -19 124 -22 192 -8 163 -20 182 -147 243
-292 138 -376 180 -376 188 0 12 185 208 255 269 185 162 485 322 745 396 273
79 560 109 806 85z m8345 0 c543 -55 1000 -271 1354 -640 123 -128 121 -111
13 -163 -462 -219 -426 -189 -439 -359 -5 -62 -16 -150 -25 -197 -62 -328
-265 -640 -564 -866 -41 -31 -85 -60 -97 -65 -54 -20 -191 26 -257 87 -71 66
-122 200 -133 344 -3 54 -10 87 -15 82 -21 -21 -37 -133 -37 -252 -1 -177 29
-258 138 -372 19 -21 33 -38 31 -38 -3 0 -37 -13 -76 -29 -157 -64 -413 -111
-604 -111 -126 1 -155 10 -209 69 -93 101 -152 224 -180 375 -18 101 -26 101
-47 2 -16 -75 -18 -218 -3 -303 6 -35 9 -66 6 -69 -9 -9 -149 55 -226 103 -82
51 -218 180 -273 258 -118 169 -188 391 -188 598 0 110 27 324 56 442 40 164
129 357 227 494 53 74 207 230 282 285 114 84 127 92 232 144 298 150 683 217
1034 181z m-9966 -144 c6 -28 1 -34 -67 -85 -77 -58 -328 -302 -370 -359 l-25
-35 -89 48 c-49 27 -92 51 -96 55 -4 4 40 69 98 146 l105 139 57 12 c81 17
224 61 301 94 36 16 69 25 73 22 4 -4 10 -21 13 -37z m11328 9 c45 -20 140
-51 211 -69 l130 -33 55 -71 c80 -101 153 -202 149 -205 -11 -8 -81 -48 -133
-76 l-60 -31 -29 33 c-141 162 -255 271 -412 394 -25 19 -26 22 -15 57 7 20
15 37 18 37 2 0 41 -16 86 -36z m-6902 -338 c25 -8 70 -26 100 -41 84 -43 280
-175 274 -186 -10 -15 -21 -11 -92 35 -149 95 -257 136 -364 136 -65 0 -105
-8 -241 -50 -90 -27 -201 -63 -248 -80 -47 -18 -114 -42 -150 -55 -36 -12
-153 -57 -260 -99 -106 -41 -195 -74 -196 -73 -1 1 -4 11 -8 23 -6 18 2 24 61
48 38 16 93 38 124 51 30 12 143 55 250 95 106 39 221 82 254 95 70 26 248 82
320 100 68 17 121 17 176 1z m2531 -1 c149 -35 595 -193 913 -324 54 -23 100
-41 102 -41 8 0 2 -40 -7 -45 -5 -3 -26 2 -47 10 -39 17 -363 142 -488 189
-86 32 -292 99 -404 132 -107 31 -218 32 -293 4 -70 -26 -222 -104 -263 -135
-34 -27 -50 -31 -60 -15 -6 10 187 140 276 186 110 55 167 63 271 39z m-1297
-224 c152 -22 775 -304 775 -351 0 -19 -29 -9 -146 50 -115 57 -155 75 -369
162 -241 98 -381 104 -585 22 -173 -69 -316 -132 -422 -185 -65 -33 -124 -59
-133 -59 -90 0 231 170 570 302 168 65 211 73 310 59z m-2010 -1471 c82 -11
223 -27 314 -35 195 -18 280 -33 496 -87 348 -87 760 -213 1005 -307 41 -16
113 -44 160 -61 455 -171 1004 -446 1415 -711 389 -250 747 -551 1036 -869
123 -137 305 -385 407 -558 493 -832 756 -1931 755 -3157 -1 -993 -170 -1929
-498 -2755 -53 -133 -205 -454 -272 -575 -153 -274 -351 -544 -528 -720 -83
-83 -201 -186 -253 -220 -20 -13 -62 -42 -92 -64 -126 -92 -405 -248 -560
-315 -143 -61 -202 -83 -360 -136 -242 -80 -528 -150 -845 -205 -93 -16 -276
-37 -281 -32 -2 2 40 18 94 36 101 34 296 109 369 142 23 11 45 19 48 19 12 0
283 139 389 199 192 109 328 204 581 406 418 333 846 850 1127 1363 38 69 178
349 178 356 0 3 13 33 30 68 121 257 285 764 355 1101 24 115 73 396 95 552
43 293 61 868 40 1240 -10 169 -35 440 -50 540 -28 181 -59 357 -74 415 -7 30
-17 73 -21 95 -9 53 -89 338 -125 445 -428 1281 -1306 2205 -2705 2845 -347
159 -658 277 -1205 457 -219 72 -373 128 -535 193 -49 21 -112 46 -138 56
-184 74 -569 299 -510 299 6 0 77 -9 158 -20z m1878 -10817 c-7 -2 -19 -2 -25
0 -7 3 -2 5 12 5 14 0 19 -2 13 -5z"/>
<path d="M13170 19784 c-155 -23 -272 -64 -465 -162 -224 -113 -566 -322 -592
-361 -11 -16 -18 -45 -18 -73 0 -71 36 -103 151 -133 586 -154 1192 -528 1708
-1054 120 -123 127 -127 195 -121 56 5 101 60 101 123 0 18 -10 69 -21 113
-12 43 -27 104 -35 134 -12 50 -17 71 -44 165 -35 126 -63 228 -75 270 -35
133 -135 426 -184 545 -146 345 -325 528 -546 555 -27 3 -59 7 -70 9 -11 2
-58 -2 -105 -10z m263 -463 c113 -57 208 -168 269 -312 48 -115 184 -566 174
-577 -2 -2 -37 26 -77 61 -155 133 -379 294 -589 421 -114 69 -365 197 -444
226 -31 12 -56 25 -56 29 0 13 198 107 295 140 131 45 160 50 266 48 87 -2
101 -5 162 -36z"/>
<path d="M5414 19780 c-311 -45 -505 -327 -711 -1025 -8 -27 -18 -63 -23 -80
-5 -16 -16 -57 -25 -90 -9 -33 -21 -75 -26 -92 -45 -158 -102 -377 -117 -453
-11 -55 -3 -87 29 -120 24 -23 39 -30 70 -30 53 0 65 7 145 91 518 538 1134
922 1737 1084 49 13 95 30 104 36 22 19 43 65 43 96 0 46 -31 80 -136 146
-330 210 -647 370 -814 411 -63 15 -195 37 -215 35 -5 -1 -33 -5 -61 -9z m206
-434 c30 -8 87 -25 125 -38 84 -30 295 -128 295 -137 0 -4 -17 -13 -37 -20
-70 -25 -306 -143 -427 -214 -215 -125 -440 -283 -625 -442 -52 -44 -92 -73
-89 -65 3 9 16 52 28 95 63 232 141 467 176 537 35 66 121 175 165 209 43 33
94 60 139 75 48 16 184 16 250 0z"/>
<path d="M12060 17344 c-54 -6 -144 -26 -154 -36 -6 -4 -17 -8 -26 -8 -28 0
-163 -87 -222 -142 -79 -75 -132 -148 -185 -257 -31 -65 -48 -114 -54 -160 -4
-37 -13 -87 -18 -111 -16 -70 -13 -297 5 -386 62 -306 247 -548 489 -639 236
-89 484 -28 675 166 71 72 106 121 151 210 17 35 38 71 45 79 7 8 25 56 40
105 26 84 28 102 28 280 1 181 0 195 -28 289 -92 313 -283 517 -556 594 -42
12 -142 20 -190 16z m-31 -558 c86 -60 131 -165 131 -307 0 -105 -19 -169 -69
-234 -46 -61 -74 -81 -133 -97 -42 -11 -55 -10 -102 6 -234 80 -256 521 -32
644 59 32 148 27 205 -12z"/>
<path d="M6482 17329 c-212 -37 -402 -189 -516 -412 -76 -149 -105 -277 -106
-464 0 -225 48 -392 164 -568 151 -226 408 -353 638 -315 98 17 169 44 253 98
240 153 385 448 385 782 0 414 -228 767 -559 864 -69 20 -191 28 -259 15z
m376 -528 c66 -34 121 -107 146 -193 51 -178 -21 -390 -153 -447 -59 -25 -83
-26 -144 -5 -113 38 -200 210 -183 365 12 122 83 245 160 280 53 24 127 24
174 0z"/>
<path d="M9078 16551 c-89 -6 -100 -8 -125 -34 -41 -41 -38 -95 8 -167 42 -64
115 -140 183 -190 99 -73 92 -59 52 -111 -78 -103 -221 -178 -389 -204 -100
-16 -113 -16 -189 0 -127 26 -228 89 -284 177 -24 38 -49 56 -60 45 -3 -3 -1
-31 6 -61 30 -146 154 -269 333 -331 l62 -22 11 -109 c17 -158 31 -239 60
-329 113 -354 334 -561 599 -559 271 1 506 234 604 601 31 115 51 237 51 308
0 33 4 66 9 74 5 8 33 21 63 28 181 46 344 204 364 356 9 62 -13 64 -55 4 -96
-141 -270 -213 -450 -187 -166 24 -287 78 -377 167 -83 83 -84 86 -22 126 72
47 171 146 219 219 48 76 51 114 10 160 -28 31 -31 32 -142 39 -130 9 -398 8
-541 0z m447 -72 c31 -11 41 -20 43 -40 3 -24 -3 -29 -45 -45 -102 -40 -358
-18 -377 32 -8 21 27 47 82 61 59 15 243 10 297 -8z m-29 -1203 c23 -8 59 -23
80 -34 42 -22 114 -84 114 -99 0 -22 -75 -132 -123 -181 -119 -121 -272 -139
-400 -46 -51 37 -117 116 -148 175 l-19 38 48 41 c124 110 312 154 448 106z"/>
<path d="M9050 14231 c0 -23 52 -81 99 -109 115 -71 285 -70 400 2 39 25 106
104 96 114 -2 2 -63 -1 -134 -8 -122 -12 -261 -10 -403 6 -42 5 -58 4 -58 -5z"/>
</g>
</svg>
