<?xml version="1.0" standalone="no"?>
<!DOCTYPE svg PUBLIC "-//W3C//DTD SVG 20010904//EN"
 "http://www.w3.org/TR/2001/REC-SVG-20010904/DTD/svg10.dtd">
<svg version="1.0" xmlns="http://www.w3.org/2000/svg"
 width="512.000000pt" height="306.000000pt" viewBox="0 0 512.000000 306.000000"
 preserveAspectRatio="xMidYMid meet">

<g transform="translate(0.000000,306.000000) scale(0.100000,-0.100000)"
fill="#000000" stroke="none">
<path d="M3364 3054 c-23 -5 -27 -20 -40 -148 l-7 -68 -38 5 c-21 3 -63 16
-94 31 l-56 25 6 38 c4 21 9 46 12 56 4 14 -2 17 -37 17 -23 0 -117 10 -208
21 -146 19 -178 20 -262 10 -115 -14 -200 -51 -259 -111 -35 -36 -50 -44 -113
-56 -40 -9 -104 -25 -141 -37 l-69 -22 -26 33 c-50 60 -138 71 -201 24 -42
-31 -55 -67 -45 -126 l9 -51 -110 -38 c-100 -34 -122 -38 -240 -42 -138 -5
-220 -18 -272 -42 -41 -19 -62 -72 -70 -177 l-6 -81 -72 -75 c-81 -85 -174
-200 -224 -278 -18 -28 -39 -52 -46 -52 -22 0 -92 58 -129 106 -52 68 -90 155
-138 315 -68 229 -118 282 -259 277 -64 -3 -82 -7 -116 -31 -66 -46 -113 -158
-113 -271 0 -126 54 -310 127 -435 72 -122 244 -274 380 -335 l43 -19 -54 -58
c-29 -31 -56 -69 -59 -84 -6 -35 8 -86 42 -150 24 -47 26 -59 27 -185 0 -74 4
-158 8 -187 l8 -52 -44 -22 c-111 -56 -224 -151 -272 -227 -101 -160 -19 -338
170 -371 122 -22 338 29 552 129 l86 40 147 -25 c153 -25 403 -49 643 -61 125
-6 149 -10 225 -39 145 -56 245 -78 356 -79 91 -1 105 2 158 27 32 16 65 40
74 53 20 31 32 30 90 -6 92 -57 245 -57 423 0 93 30 100 31 388 40 161 6 365
17 455 25 89 9 191 18 227 22 57 5 72 2 115 -19 72 -36 226 -93 325 -119 108
-28 243 -31 316 -6 94 32 158 122 158 222 1 81 -36 147 -130 234 -65 60 -71
68 -62 91 39 101 50 360 23 530 -19 117 -57 260 -95 354 -27 69 -28 76 -23
202 7 155 -10 247 -62 352 -58 115 -169 221 -297 283 -41 20 -49 29 -68 79
-32 87 -85 149 -159 187 -34 18 -76 33 -93 33 -45 0 -62 13 -103 85 -44 75
-124 155 -155 155 -38 0 -172 -50 -270 -100 -52 -27 -95 -48 -97 -47 -1 2 3
33 10 70 13 77 5 111 -33 138 -25 19 -98 31 -136 23z m116 -53 c34 -25 37 -64
7 -95 -21 -21 -29 -23 -68 -16 -24 5 -48 6 -53 3 -14 -9 4 120 17 130 17 11
68 0 97 -22z m-555 -6 c55 -8 119 -15 143 -15 44 0 45 -2 36 -36 l-6 -22 -59
24 c-75 30 -150 32 -204 3 -23 -11 -68 -23 -105 -25 -36 -3 -81 -10 -100 -15
-19 -5 -79 -9 -134 -9 -88 0 -97 2 -86 16 21 24 96 65 148 79 64 18 245 18
367 0z m190 -122 c66 -31 122 -58 123 -59 2 -1 1 -12 -3 -23 -9 -30 -81 -28
-161 4 -34 14 -90 29 -125 34 -83 12 -149 33 -149 47 0 14 43 43 79 55 49 16
115 -1 236 -58z m805 48 c0 -3 -30 -15 -67 -25 -76 -22 -243 -102 -243 -117 0
-5 17 1 38 14 55 34 171 84 235 100 l57 15 28 -36 c16 -21 45 -64 64 -97 47
-79 159 -307 154 -313 -3 -2 -25 10 -50 27 -130 90 -396 199 -563 231 -54 11
-63 16 -63 34 0 42 334 193 392 178 10 -2 18 -7 18 -11z m-1935 -72 c14 -12
46 -62 69 -110 l42 -89 -37 0 c-48 0 -75 -27 -84 -84 -11 -69 -27 -115 -47
-132 -10 -10 -19 -15 -21 -13 -2 2 -18 23 -36 46 -30 40 -32 45 -20 77 11 30
9 47 -14 134 -22 79 -25 105 -17 128 21 61 112 84 165 43z m680 5 c62 -6 222
-54 265 -79 23 -13 23 -14 4 -15 -11 0 -47 11 -80 24 -227 92 -498 67 -688
-64 -56 -38 -65 -17 -11 24 80 62 186 102 305 116 64 7 86 7 205 -6z m825 -9
c0 -2 -5 -27 -11 -54 -9 -45 -13 -50 -32 -46 -12 3 -58 9 -102 13 -73 6 -80 9
-83 30 -3 21 0 22 55 23 32 0 81 9 108 19 54 20 65 23 65 15z m-1300 -30 c0
-6 -87 -45 -101 -45 -25 0 -3 19 39 33 53 18 62 19 62 12z m1149 -95 c193 -21
491 -98 491 -127 0 -8 -9 -42 -21 -76 -73 -217 -210 -348 -439 -419 -67 -20
-95 -23 -255 -23 -158 0 -190 3 -260 23 -218 63 -364 199 -435 408 -34 97 -34
96 83 132 259 79 571 110 836 82z m852 -35 c86 -30 145 -95 187 -208 53 -142
118 -228 223 -297 l56 -36 -40 -22 -40 -22 -107 112 c-59 62 -132 133 -163
158 -31 24 -62 58 -68 75 -7 16 -36 79 -66 138 -29 60 -53 110 -53 113 0 8 27
4 71 -11z m-2436 -55 c-13 -14 -30 -20 -59 -19 l-41 1 50 18 c65 24 72 24 50
0z m25 -61 c-39 -49 -52 -59 -58 -41 -4 13 78 103 89 97 5 -3 -9 -28 -31 -56z
m2204 -35 c248 -125 484 -338 647 -584 64 -96 170 -312 204 -415 69 -211 101
-412 92 -585 -4 -91 -31 -250 -42 -250 -2 0 -28 14 -57 31 -72 43 -158 80
-169 73 -20 -12 -5 -24 74 -63 287 -140 403 -302 324 -452 -92 -173 -387 -145
-835 80 -62 31 -103 47 -107 40 -9 -14 10 -35 47 -50 27 -11 29 -13 11 -20
-10 -4 -55 -10 -99 -14 -43 -3 -91 -8 -106 -11 -24 -5 -30 0 -54 48 -70 141
-206 275 -348 343 -275 131 -674 122 -946 -21 l-86 -45 -69 46 c-70 47 -180
106 -222 119 -17 6 -23 3 -23 -8 0 -10 32 -32 83 -57 281 -141 395 -299 320
-444 -45 -87 -108 -119 -233 -118 -147 1 -354 65 -592 184 -95 48 -128 58
-128 40 0 -13 18 -25 105 -70 l80 -42 -50 5 c-27 3 -104 8 -170 11 -258 12
-544 55 -715 107 l-75 23 85 6 c182 13 291 122 349 349 17 68 28 139 77 495
72 525 359 951 817 1213 94 54 194 98 203 89 3 -3 12 -31 21 -64 30 -119 118
-255 211 -325 64 -49 153 -93 243 -118 93 -27 310 -38 419 -21 293 45 504 227
560 483 15 66 6 66 154 -8z m-3658 27 c43 -26 77 -74 103 -145 23 -62 22 -86
-3 -86 -27 0 -130 -50 -160 -78 -40 -38 -57 -82 -47 -119 34 -118 128 -143
283 -76 31 13 40 13 53 3 8 -7 15 -15 15 -19 0 -3 -29 -21 -65 -40 -128 -66
-156 -132 -86 -202 34 -34 44 -39 85 -39 55 0 102 18 165 63 25 18 52 37 59
41 7 4 -9 -36 -36 -91 -27 -54 -60 -127 -73 -162 -13 -35 -29 -65 -35 -68 -34
-13 -228 113 -320 209 -121 125 -199 290 -224 475 -22 166 26 304 120 342 43
17 132 13 166 -8z m1374 12 c-1 -24 -18 -33 -44 -23 -40 15 -86 12 -131 -9
-107 -49 -161 -169 -120 -268 19 -45 19 -43 -8 -43 -13 0 -45 -11 -73 -25 -27
-13 -74 -33 -104 -43 -30 -11 -63 -23 -72 -27 -17 -7 -18 3 -18 128 0 74 5
158 10 188 10 49 36 106 46 97 2 -3 -3 -49 -11 -104 -16 -109 -18 -198 -5
-229 6 -13 9 19 9 89 1 107 16 233 30 249 16 17 106 25 294 26 108 1 197 -2
197 -6z m-13 -80 c50 -24 64 -25 119 -8 17 5 26 -1 47 -37 24 -39 24 -44 10
-55 -9 -7 -40 -13 -67 -13 -28 -1 -68 -7 -88 -14 -36 -13 -38 -12 -69 20 -48
49 -69 46 -69 -11 0 -118 -75 -178 -126 -100 -38 59 -5 174 63 216 70 44 95
44 180 2z m2930 -207 c118 -109 171 -233 180 -418 4 -71 2 -108 -5 -108 -15 0
-22 26 -22 83 0 77 -17 178 -41 249 -25 75 -81 137 -182 205 -37 24 -74 58
-83 75 l-16 30 53 -28 c29 -16 81 -55 116 -88z m-2897 -58 c0 -36 -52 -77
-120 -95 l-65 -16 -55 39 -55 39 57 5 c71 6 94 27 115 103 l17 58 52 -58 c29
-32 53 -66 54 -75z m-1245 30 c10 -35 28 -86 41 -115 12 -29 19 -55 14 -58
-31 -19 -130 -45 -172 -45 -60 0 -90 18 -113 70 -32 71 0 122 108 175 40 19
79 35 88 35 12 0 22 -19 34 -62z m615 -47 c0 -21 2 -51 5 -67 5 -26 0 -33 -56
-69 -120 -79 -226 -230 -262 -373 -12 -49 -18 -56 -66 -83 -29 -17 -55 -28
-58 -26 -7 8 110 249 158 326 69 109 250 331 271 331 4 0 8 -17 8 -39z m356
-63 l52 -41 -28 -23 c-46 -39 -55 -75 -42 -166 12 -84 4 -127 -30 -156 -15
-12 -25 -10 -116 23 -10 4 -7 13 12 36 32 38 35 98 6 160 -21 48 -26 119 -9
150 12 23 67 59 89 59 8 0 38 -19 66 -42z m-203 -33 c-9 -26 -56 -45 -78 -32
-18 10 -16 12 20 29 50 22 66 23 58 3z m-129 -59 c-100 -121 -143 -194 -165
-286 -14 -60 -19 -258 -6 -302 6 -21 4 -28 -7 -28 -31 0 -43 246 -17 350 28
112 91 211 174 271 52 37 55 36 21 -5z m154 -92 c21 -41 20 -98 -2 -123 -28
-30 -86 -28 -119 4 -53 53 -59 124 -16 179 l20 26 52 -30 c28 -16 57 -41 65
-56z m-657 16 c17 -21 50 -52 72 -67 l39 -27 -33 -29 c-40 -34 -123 -75 -159
-77 -55 -4 -73 1 -101 31 -38 41 -38 78 1 117 28 28 126 91 142 92 4 0 21 -18
39 -40z m273 -149 c-45 -104 -66 -212 -63 -336 2 -122 1 -128 -10 -121 -5 4
-12 44 -16 91 -12 139 25 297 96 412 11 18 22 33 24 33 1 0 -13 -36 -31 -79z
m412 -92 c58 -24 64 -32 64 -84 0 -49 -14 -65 -54 -65 -72 0 -129 -67 -130
-152 -1 -27 -6 -48 -12 -48 -16 0 -54 39 -65 67 -24 64 -4 101 77 141 49 25
69 65 61 122 -3 22 -1 40 3 40 5 0 30 -9 56 -21z m-537 -227 c0 -54 7 -132 16
-173 26 -122 28 -135 15 -158 -10 -19 -19 -22 -58 -21 -78 4 -92 1 -119 -26
l-26 -26 -18 23 c-10 13 -37 60 -59 104 -33 63 -41 89 -38 120 3 32 5 36 12
20 31 -76 66 -144 85 -165 19 -21 19 -19 -4 20 -34 58 -65 128 -72 161 -4 22
3 33 46 70 36 31 197 141 218 148 1 1 2 -43 2 -97z m-113 -568 c20 -48 17
-108 -8 -157 -12 -23 -27 -60 -33 -82 l-12 -40 -17 57 c-28 99 -36 157 -36
277 l0 116 46 -69 c25 -38 52 -83 60 -102z m2744 -194 c139 -34 258 -98 354
-190 44 -43 79 -81 76 -84 -10 -9 -869 -19 -1010 -11 l-135 7 -40 59 c-22 33
-51 67 -64 76 l-24 16 39 24 c92 57 192 93 328 119 106 20 366 12 476 -16z
m-2801 -149 c50 -97 175 -185 315 -223 25 -7 46 -15 46 -19 0 -9 -179 -82
-280 -114 -105 -32 -244 -43 -320 -25 -108 26 -178 138 -150 241 26 95 129
201 273 280 l52 28 21 -62 c12 -34 31 -82 43 -106z m2456 -371 c-113 -29 -271
-23 -309 11 -6 5 75 8 185 8 l194 -1 -70 -18z"/>
<path d="M2415 1825 c-5 -2 -22 -6 -37 -9 -37 -8 -98 -63 -114 -103 -27 -64
-14 -135 34 -186 39 -42 75 -57 132 -57 57 0 93 15 132 57 98 103 37 270 -107
295 -16 3 -34 4 -40 3z m-34 -85 c36 -20 13 -76 -28 -68 -22 4 -29 43 -13 64
15 17 16 17 41 4z"/>
<path d="M3756 1819 c-156 -36 -186 -249 -46 -328 34 -19 52 -23 101 -19 149
11 218 174 123 288 -45 53 -108 74 -178 59z m-1 -85 c19 -20 16 -43 -7 -58
-21 -13 -51 2 -56 26 -3 16 23 48 38 48 5 0 16 -7 25 -16z"/>
<path d="M3050 1513 c-53 -6 -89 -23 -96 -46 -9 -28 50 -82 105 -97 l41 -11 0
-92 c-1 -120 -21 -169 -82 -197 -50 -23 -85 -25 -139 -9 -77 24 -148 110 -149
181 0 33 -9 58 -21 58 -18 0 -8 -86 15 -135 29 -63 79 -108 146 -130 85 -28
176 -6 220 53 l21 28 37 -37 c66 -66 158 -73 255 -21 75 40 127 126 127 209 0
53 -22 35 -35 -28 -14 -68 -24 -87 -73 -131 -28 -25 -57 -40 -96 -49 -51 -11
-62 -10 -104 7 -75 31 -92 66 -92 190 l0 104 28 6 c44 10 110 52 117 75 8 26
-17 56 -54 63 -46 8 -135 13 -171 9z"/>
<path d="M1572 1479 c4 -11 375 -129 406 -129 6 0 12 6 12 13 0 8 -71 34 -194
70 -199 59 -230 65 -224 46z"/>
<path d="M4428 1432 c-113 -34 -188 -62 -188 -69 0 -7 8 -13 18 -12 36 1 396
115 400 127 7 21 -37 12 -230 -46z"/>
<path d="M1542 1239 c3 -10 34 -16 114 -20 229 -14 307 -14 311 -2 6 17 -33
21 -241 29 -159 6 -188 5 -184 -7z"/>
<path d="M4383 1241 c-109 -6 -136 -13 -117 -30 8 -8 383 5 412 14 6 3 12 9
12 15 0 11 -108 11 -307 1z"/>
<path d="M1748 1052 c-140 -25 -198 -39 -198 -49 0 -7 8 -13 18 -13 28 1 403
68 409 74 8 8 -7 26 -20 25 -7 -1 -101 -17 -209 -37z"/>
<path d="M4255 1079 c-4 -6 -5 -12 -3 -14 4 -4 395 -75 415 -75 7 0 13 7 13
15 0 8 -3 15 -8 15 -4 0 -97 16 -207 35 -110 19 -201 35 -202 35 -1 0 -5 -5
-8 -11z"/>
</g>
</svg>
