<?xml version="1.0" standalone="no"?>
<!DOCTYPE svg PUBLIC "-//W3C//DTD SVG 20010904//EN"
 "http://www.w3.org/TR/2001/REC-SVG-20010904/DTD/svg10.dtd">
<svg version="1.0" xmlns="http://www.w3.org/2000/svg"
 width="2015.000000pt" height="1894.000000pt" viewBox="0 0 2015.000000 1894.000000"
 preserveAspectRatio="xMidYMid meet">

<g transform="translate(0.000000,1894.000000) scale(0.100000,-0.100000)"
fill="#000000" stroke="none">
<path d="M9675 18534 c-16 -2 -79 -9 -140 -15 -825 -82 -1725 -587 -2325
-1304 -459 -549 -753 -1232 -810 -1885 -49 -565 58 -1126 313 -1635 316 -633
859 -1227 1500 -1639 96 -62 330 -197 415 -240 29 -15 52 -32 50 -38 -2 -5
-35 -20 -73 -32 -130 -42 -235 -105 -338 -205 -27 -25 -175 -217 -329 -426
-155 -209 -286 -386 -293 -393 -9 -11 -29 -12 -78 -7 l-65 7 -15 42 c-8 22
-43 127 -76 231 -67 207 -96 263 -185 348 -105 101 -283 159 -425 139 -115
-16 -839 -247 -918 -292 -102 -59 -198 -179 -239 -300 -14 -42 -19 -83 -19
-170 1 -102 4 -126 32 -210 27 -82 86 -267 108 -337 10 -36 -17 -30 -186 46
-180 80 -769 340 -1014 448 -93 41 -208 92 -255 113 -118 52 -170 69 -259 81
-290 41 -585 -113 -713 -374 -57 -114 -136 -356 -192 -587 -70 -289 -98 -490
-124 -880 l-7 -105 -118 -41 c-568 -202 -980 -644 -1141 -1224 -35 -128 -48
-238 -51 -439 -3 -155 -7 -206 -17 -212 -7 -3 -39 -10 -71 -14 -86 -10 -194
-42 -262 -78 -75 -39 -190 -153 -236 -232 -92 -159 -102 -274 -54 -614 8 -58
28 -203 45 -321 16 -118 34 -246 40 -285 25 -166 40 -280 40 -300 0 -21 -35
-86 -215 -395 -93 -161 -269 -464 -373 -645 -215 -371 -226 -400 -226 -570 0
-186 54 -317 184 -445 66 -66 107 -93 329 -220 140 -80 263 -152 274 -161 22
-17 22 -13 -35 -319 -32 -168 -32 -476 0 -604 34 -135 69 -231 124 -336 190
-365 511 -614 918 -712 120 -29 349 -34 1390 -32 481 1 883 0 892 -2 9 -3 29
-26 44 -52 146 -251 413 -400 860 -477 201 -35 420 -47 869 -48 437 -1 622 8
845 39 444 62 759 219 900 450 19 31 42 65 51 74 16 17 129 18 2060 18 1124 0
2055 -1 2069 -4 18 -3 34 -21 58 -65 18 -33 63 -91 99 -130 195 -206 516 -322
1013 -364 357 -30 1021 -28 1325 5 335 36 596 111 781 225 98 60 218 181 262
263 18 34 39 62 45 63 7 1 471 2 1032 4 561 2 1056 6 1100 10 513 41 985 418
1158 925 81 237 92 470 37 775 -44 249 -44 249 -29 262 8 6 129 77 269 158
140 81 279 166 309 189 102 77 194 223 226 358 19 80 19 225 0 303 -21 90 -42
132 -235 465 -97 168 -192 333 -211 367 l-34 63 28 47 c57 96 156 310 181 392
142 455 109 906 -99 1326 -96 193 -180 310 -335 465 -260 261 -550 417 -913
492 -83 17 -145 22 -327 24 l-225 3 -28 38 c-112 152 -272 242 -514 290 -51
10 -87 22 -90 30 -3 8 6 63 21 123 38 159 84 442 101 625 29 311 15 787 -31
1073 -59 367 -180 800 -275 983 -146 280 -481 425 -793 344 -60 -16 -142 -51
-715 -304 -199 -89 -367 -161 -372 -161 -5 0 -9 21 -9 48 -1 133 -69 303 -164
409 -59 65 -154 131 -235 162 -26 11 -329 90 -672 176 -343 85 -637 160 -654
165 -27 9 -33 20 -63 105 -101 298 -274 565 -542 838 -340 348 -736 619 -1360
931 -333 166 -595 281 -1300 571 -405 166 -483 207 -645 329 -371 280 -558
688 -516 1123 12 117 24 171 63 288 95 285 314 552 580 708 161 94 369 162
533 174 l80 6 18 -64 c45 -156 130 -346 209 -463 57 -85 210 -239 288 -291
137 -90 252 -137 395 -160 161 -26 329 -12 477 41 375 134 632 432 724 839 9
39 18 141 21 230 4 132 1 182 -16 285 -62 382 -239 716 -528 1002 -127 126
-186 173 -348 280 -426 280 -948 432 -1465 426 -74 0 -148 -3 -165 -4z m433
-315 c514 -55 1033 -301 1361 -644 338 -355 489 -843 385 -1250 -54 -210 -206
-406 -394 -508 -108 -59 -198 -81 -325 -82 -127 0 -216 22 -325 82 -87 48
-223 185 -286 289 -52 84 -132 269 -122 280 4 3 44 -2 90 -10 161 -30 221 -15
258 67 49 106 -2 200 -125 231 -332 83 -698 69 -1020 -38 -132 -45 -346 -151
-450 -224 -106 -75 -295 -266 -372 -375 -68 -97 -157 -264 -198 -372 -33 -89
-70 -238 -86 -343 -15 -111 -6 -422 16 -522 91 -415 331 -748 731 -1018 120
-80 257 -144 764 -355 730 -304 982 -418 1305 -590 673 -358 1094 -701 1366
-1111 66 -100 147 -252 138 -260 -3 -3 -37 1 -75 9 -208 44 -413 -16 -581
-169 -35 -32 -65 -57 -67 -55 -2 2 -32 42 -66 87 -356 483 -949 755 -1551 712
-293 -21 -550 -104 -808 -259 l-103 -63 -77 32 c-700 293 -1184 570 -1556 891
-137 119 -375 360 -490 499 -269 324 -464 665 -593 1035 -399 1154 40 2471
1109 3326 494 395 1064 643 1629 708 109 12 405 13 518 0z m812 -6502 c287
-68 520 -197 720 -397 116 -116 206 -237 271 -364 l43 -83 -13 -57 c-7 -31
-16 -56 -20 -56 -3 0 -15 15 -25 33 -35 60 -128 179 -200 254 -320 338 -787
524 -1251 499 -211 -12 -444 -70 -607 -152 -37 -19 -73 -34 -80 -34 -6 0 -30
12 -51 27 l-39 27 28 24 c161 130 419 247 634 286 136 24 137 24 315 21 138
-3 190 -8 275 -28z m-1866 -255 c71 -26 132 -67 441 -297 l239 -178 -54 -45
c-30 -25 -172 -163 -315 -308 -271 -273 -342 -337 -426 -379 -163 -83 -279
-49 -783 229 -115 64 -214 117 -219 119 -16 5 468 655 542 727 73 72 145 115
236 142 83 25 256 20 339 -10z m-2066 -309 c71 -44 146 -180 95 -171 -10 2
-21 7 -24 11 -3 4 -18 9 -32 11 -15 1 -30 6 -34 9 -10 11 -91 8 -98 -3 -3 -5
-12 -10 -18 -10 -7 0 -6 4 3 11 12 9 11 10 -5 4 -11 -4 -33 -9 -50 -12 -16 -3
-31 -9 -33 -14 -2 -5 -10 -9 -18 -9 -13 0 -19 -13 -15 -34 1 -5 -4 -5 -11 0
-17 13 -78 18 -78 7 0 -4 -13 -9 -28 -10 -15 -1 -41 -7 -57 -14 -35 -14 -30
-13 -75 -23 -19 -5 -41 -13 -48 -19 -7 -5 -22 -11 -35 -12 -12 -2 -55 -15 -96
-29 -41 -14 -82 -26 -92 -26 -10 0 -24 -7 -32 -15 -8 -8 -16 -12 -19 -10 -6 6
-91 -21 -134 -43 -31 -16 -35 -22 -21 -26 47 -16 51 -19 40 -23 -6 -2 -25 3
-41 11 -30 15 -31 15 -61 -19 -17 -19 -35 -35 -41 -35 -18 0 -24 53 -12 109
14 65 50 120 101 154 21 14 155 62 297 107 142 46 313 100 379 121 148 48 218
49 293 2z m6558 -198 c559 -140 911 -233 942 -249 106 -54 175 -173 170 -294
-2 -48 -7 -67 -18 -70 -8 -3 -12 -1 -8 3 12 13 -12 35 -37 35 -12 0 -30 10
-41 22 l-19 22 28 -18 c31 -19 46 -16 28 6 -7 7 -18 22 -26 33 l-15 20 6 -20
c3 -12 -1 -10 -10 7 -20 34 -100 90 -132 92 -13 0 -24 4 -24 8 0 9 -72 29 -79
23 -2 -3 1 -5 8 -5 7 0 9 -4 6 -10 -4 -6 -11 -5 -19 3 -8 6 -12 15 -9 20 4 6
-9 8 -84 12 -13 0 -28 6 -35 13 -18 18 -38 15 -39 -5 -1 -16 -2 -16 -6 0 -3
10 -11 16 -18 13 -7 -2 -16 2 -19 10 -3 9 -14 14 -23 13 -10 -1 -31 3 -48 10
-16 7 -40 9 -53 6 -13 -3 -21 -2 -18 3 6 10 -39 22 -80 22 -13 0 -24 5 -24 10
0 18 -30 11 -31 -7 -1 -16 -2 -16 -6 -1 -5 20 -48 39 -96 41 -19 1 -33 4 -31
7 10 9 -242 70 -271 65 -19 -3 -25 -2 -17 4 18 11 -36 22 -68 14 -14 -4 -21
-2 -17 4 7 12 -112 47 -160 47 -18 0 -29 4 -26 10 4 5 -7 7 -28 3 -20 -4 -29
-3 -21 2 21 13 -46 23 -70 10 -11 -6 -22 -8 -26 -5 -3 3 0 6 6 6 7 0 12 5 12
10 0 6 -8 10 -19 10 -10 0 -32 7 -47 15 -16 8 -36 15 -45 15 -9 0 -61 12 -115
26 -55 14 -119 28 -144 31 -25 2 -50 9 -57 15 -7 5 -40 8 -75 5 -112 -9 -149
-21 -141 -45 4 -13 2 -12 -10 3 -14 17 -16 17 -17 4 0 -9 -7 -20 -16 -23 -10
-4 -13 -2 -8 6 4 7 8 22 9 33 1 29 57 99 101 126 60 37 127 58 183 59 38 0
312 -65 947 -225z m-996 51 c0 -3 -4 -8 -10 -11 -5 -3 -10 -1 -10 4 0 6 5 11
10 11 6 0 10 -2 10 -4z m-120 -42 c0 -2 -7 -4 -15 -4 -8 0 -15 4 -15 10 0 5 7
7 15 4 8 -4 15 -8 15 -10z m-5625 -4 c-27 -12 -43 -12 -25 0 8 5 22 9 30 9 10
0 8 -3 -5 -9z m250 -10 c13 -5 14 -9 5 -9 -8 0 -24 4 -35 9 -13 5 -14 9 -5 9
8 0 24 -4 35 -9z m5598 3 c-7 -2 -19 -2 -25 0 -7 3 -2 5 12 5 14 0 19 -2 13
-5z m172 -21 c-3 -3 -11 0 -18 7 -9 10 -8 11 6 5 10 -3 15 -9 12 -12z m-515
-12 c0 -5 -5 -10 -11 -10 -5 0 -7 5 -4 10 3 6 8 10 11 10 2 0 4 -4 4 -10z m30
-5 c0 -8 -4 -15 -10 -15 -5 0 -10 7 -10 15 0 8 5 15 10 15 6 0 10 -7 10 -15z
m-5440 -5 c-12 -8 -12 -10 -1 -10 8 0 12 -3 8 -6 -3 -4 -14 -3 -24 0 -15 6
-15 8 -3 16 8 6 20 10 25 10 6 0 3 -5 -5 -10z m216 -17 c-10 -10 -19 5 -10 18
6 11 8 11 12 0 2 -7 1 -15 -2 -18z m5814 23 c0 -3 -4 -8 -10 -11 -5 -3 -10 -1
-10 4 0 6 5 11 10 11 6 0 10 -2 10 -4z m-6350 -26 c0 -5 -4 -10 -10 -10 -5 0
-10 5 -10 10 0 6 5 10 10 10 6 0 10 -4 10 -10z m540 -51 c0 -5 -4 -9 -10 -9
-5 0 -10 7 -10 16 0 8 5 12 10 9 6 -3 10 -10 10 -16z m-25 -19 c3 -5 1 -10 -4
-10 -6 0 -11 5 -11 10 0 6 2 10 4 10 3 0 8 -4 11 -10z m3180 -23 c101 -49 168
-107 465 -407 146 -147 297 -291 335 -319 102 -75 216 -129 314 -148 205 -40
416 29 865 285 446 253 593 272 753 97 32 -34 85 -109 119 -166 75 -128 234
-435 234 -453 0 -8 -15 -19 -32 -26 -18 -7 -99 -41 -180 -77 l-148 -64 -107
35 c-653 211 -1326 342 -2113 412 -242 21 -829 29 -1110 15 -247 -13 -305 -18
-594 -51 -213 -24 -220 -24 -137 0 84 24 190 78 276 142 39 28 198 181 355
338 359 362 437 418 575 420 49 0 74 -7 130 -33z m-4031 4 c3 -5 -1 -11 -9
-14 -9 -4 -12 -1 -8 9 6 16 10 17 17 5z m7043 -6 c2 -6 -12 -9 -29 -8 -45 2
-45 2 -28 13 18 12 52 9 57 -5z m-6960 -1 c-3 -3 -12 -4 -19 -1 -8 3 -5 6 6 6
11 1 17 -2 13 -5z m6553 -4 c0 -5 -12 -10 -26 -10 -14 0 -23 4 -19 10 3 6 15
10 26 10 10 0 19 -4 19 -10z m17 -12 c-3 -8 -6 -5 -6 6 -1 11 2 17 5 13 3 -3
4 -12 1 -19z m-6607 2 c0 -5 -2 -10 -4 -10 -3 0 -8 5 -11 10 -3 6 -1 10 4 10
6 0 11 -4 11 -10z m7175 -8 c-3 -3 -11 0 -18 7 -9 10 -8 11 6 5 10 -3 15 -9
12 -12z m-800 -10 c-3 -3 -11 0 -18 7 -9 10 -8 11 6 5 10 -3 15 -9 12 -12z
m-6560 -2 c-3 -5 -12 -10 -18 -10 -7 0 -6 4 3 10 19 12 23 12 15 0z m6618 -18
c-18 -5 -27 3 -18 17 4 7 10 7 20 -2 11 -10 11 -13 -2 -15z m-83 8 c0 -5 -4
-10 -10 -10 -5 0 -10 5 -10 10 0 6 5 10 10 10 6 0 10 -4 10 -10z m167 -6 c-3
-3 -12 -4 -19 -1 -8 3 -5 6 6 6 11 1 17 -2 13 -5z m778 -4 c-3 -5 -1 -10 6
-10 7 0 10 -3 6 -6 -3 -3 -16 -2 -29 2 -22 7 -22 7 -3 15 27 10 27 10 20 -1z
m-1259 -35 c-3 -8 -16 -14 -28 -14 -15 1 -18 3 -7 6 10 2 20 14 24 26 4 14 8
17 12 9 3 -7 2 -19 -1 -27z m-73 5 c-3 -12 -8 -19 -11 -16 -5 6 5 36 12 36 2
0 2 -9 -1 -20z m-5119 -21 c-7 -11 -34 -12 -34 -1 0 14 11 21 26 15 8 -3 11
-9 8 -14z m5236 -13 c0 -3 -4 -8 -10 -11 -5 -3 -10 -1 -10 4 0 6 5 11 10 11 6
0 10 -2 10 -4z m750 -6 c0 -5 -5 -10 -11 -10 -5 0 -7 5 -4 10 3 6 8 10 11 10
2 0 4 -4 4 -10z m-5939 -33 c-10 -9 -11 -8 -5 6 3 10 9 15 12 12 3 -3 0 -11
-7 -18z m5080 -4 c13 -16 12 -17 -3 -5 -9 8 -23 10 -29 6 -8 -4 -9 -3 -5 4 10
17 21 15 37 -5z m894 -11 c-6 -7 -34 11 -29 19 3 5 11 3 19 -4 7 -6 12 -13 10
-15z m705 18 c0 -5 -2 -10 -4 -10 -3 0 -8 5 -11 10 -3 6 -1 10 4 10 6 0 11 -4
11 -10z m40 -5 c-7 -8 -17 -15 -23 -15 -6 0 -2 7 9 15 25 19 30 19 14 0z
m-1655 -33 c-3 -3 -11 0 -18 7 -9 10 -8 11 6 5 10 -3 15 -9 12 -12z m-5145 -2
c12 -7 10 -9 -8 -7 -12 0 -22 5 -22 9 0 11 12 10 30 -2z m5200 0 c0 -5 -2 -10
-4 -10 -3 0 -8 5 -11 10 -3 6 -1 10 4 10 6 0 11 -4 11 -10z m1934 -24 c-3 -9
-13 -12 -27 -8 -21 6 -21 6 3 13 14 4 26 7 27 8 1 1 0 -5 -3 -13z m-7215 -80
c1 -6 -5 -1 -13 9 -8 11 -12 24 -8 29 5 9 20 -17 21 -38z m-2929 -5 c25 -10
716 -314 1535 -676 820 -362 1508 -662 1531 -667 36 -8 62 -2 230 52 393 127
762 220 1162 294 l33 6 234 -477 c130 -262 243 -485 252 -495 20 -22 41 -23
65 -1 17 15 18 45 18 529 0 332 4 515 10 519 25 15 509 50 521 38 5 -5 40
-157 79 -338 194 -909 224 -1041 233 -1052 16 -22 57 -16 66 10 4 12 68 326
141 697 73 371 138 680 144 686 8 9 58 9 186 3 189 -10 379 -25 386 -32 2 -2
-1 -107 -6 -233 -5 -126 -11 -339 -12 -474 l-3 -245 24 0 c21 0 47 41 212 335
335 597 303 545 335 548 33 3 333 -52 569 -105 224 -50 482 -120 745 -203 168
-53 232 -69 255 -64 16 4 392 166 835 361 443 196 1129 498 1526 673 407 180
746 323 778 330 128 26 281 -39 352 -151 48 -77 157 -432 209 -684 173 -842
72 -1743 -284 -2531 -46 -102 -53 -163 -24 -217 9 -18 60 -79 113 -137 600
-647 1133 -1449 1504 -2262 303 -665 515 -1340 652 -2082 62 -333 55 -514 -26
-725 -116 -300 -376 -531 -695 -618 l-100 -28 -1041 -3 -1042 -3 -7 63 c-35
315 -184 608 -445 868 -236 237 -528 406 -850 495 -179 49 -283 66 -465 72
-343 12 -652 -53 -950 -201 -546 -271 -916 -740 -963 -1222 l-7 -69 -2007 -3
-2007 -2 -5 32 c-33 234 -51 298 -131 463 -70 145 -156 264 -290 404 -131 135
-248 229 -406 322 -459 272 -982 347 -1509 217 -649 -159 -1207 -688 -1325
-1256 -8 -40 -15 -92 -15 -115 0 -23 -4 -48 -8 -55 -7 -10 -209 -12 -1048 -9
-1025 3 -1040 3 -1119 24 -195 52 -359 148 -491 285 -93 97 -128 145 -182 254
-80 159 -121 355 -108 518 12 164 89 558 171 886 244 966 638 1851 1196 2690
246 371 515 713 846 1077 51 57 98 115 104 130 20 53 12 114 -26 198 -382 834
-473 1794 -255 2680 75 305 134 482 186 557 88 126 264 177 414 119z m1929 -5
c-12 -26 -29 -35 -29 -16 0 6 4 10 9 10 5 0 11 10 14 22 4 12 9 20 12 16 3 -3
0 -17 -6 -32z m7276 13 c-5 -15 -4 -19 4 -15 6 4 11 3 11 -3 0 -5 -4 -12 -9
-15 -12 -8 -22 20 -15 39 9 23 16 18 9 -6z m-6371 -45 c3 -8 2 -12 -4 -9 -6 3
-10 10 -10 16 0 14 7 11 14 -7z m6444 -25 c17 -20 19 -26 7 -26 -8 0 -15 6
-15 13 0 6 -7 15 -16 18 -8 3 -12 11 -9 17 4 5 8 9 9 7 0 -2 11 -15 24 -29z
m-7298 -14 c0 -8 -4 -15 -10 -15 -5 0 -7 7 -4 15 4 8 8 15 10 15 2 0 4 -7 4
-15z m7265 5 c3 -5 1 -10 -4 -10 -6 0 -11 5 -11 10 0 6 2 10 4 10 3 0 8 -4 11
-10z m-5721 -15 c94 -25 204 -77 463 -221 364 -203 509 -259 698 -271 l100 -7
-125 -18 c-483 -70 -914 -168 -1382 -314 l-176 -54 -139 61 c-76 33 -140 63
-142 65 -3 2 43 100 102 217 249 496 367 603 601 542z m-669 -5 c3 -6 -1 -7
-9 -4 -18 7 -21 14 -7 14 6 0 13 -4 16 -10z m-83 -32 c-6 -6 -15 -8 -19 -4 -4
4 -1 11 7 16 19 12 27 3 12 -12z m62 6 c3 -8 2 -12 -4 -9 -6 3 -10 10 -10 16
0 14 7 11 14 -7z m-40 -78 c-3 -15 -8 -25 -11 -23 -2 3 -1 17 3 31 3 15 8 25
11 23 2 -3 1 -17 -3 -31z m7738 -12 c-9 -16 -10 -14 -9 8 1 15 6 23 11 18 4
-4 4 -16 -2 -26z m-1175 -21 l-11 -25 -8 22 c-5 14 -4 28 3 37 18 21 30 -4 16
-34z m-7367 12 c0 -8 -2 -15 -4 -15 -2 0 -6 7 -10 15 -3 8 -1 15 4 15 6 0 10
-7 10 -15z m766 -43 c-11 -10 -15 4 -8 28 l7 25 3 -23 c2 -13 1 -26 -2 -30z
m7574 -26 c0 -2 -7 -7 -16 -10 -8 -3 -12 -2 -9 4 6 10 25 14 25 6z m66 -11
c12 4 9 1 -6 -8 -28 -17 -42 -13 -33 9 4 11 8 12 13 4 3 -6 15 -8 26 -5z
m-109 -27 c-3 -8 -6 -5 -6 6 -1 11 2 17 5 13 3 -3 4 -12 1 -19z m-864 -33 c-3
-9 -8 -14 -10 -11 -3 3 -2 9 2 15 9 16 15 13 8 -4z m816 -22 c2 -2 0 -3 -6 -3
-6 0 -21 9 -34 21 l-24 20 30 -17 c17 -10 32 -19 34 -21z m-786 7 c3 -11 1
-18 -4 -14 -5 3 -9 12 -9 20 0 20 7 17 13 -6z m677 -10 c8 -5 11 -10 5 -10 -5
0 -17 5 -25 10 -8 5 -10 10 -5 10 6 0 17 -5 25 -10z m-683 -52 c-3 -8 -6 -5
-6 6 -1 11 2 17 5 13 3 -3 4 -12 1 -19z m-6804 4 c3 8 6 9 6 2 1 -7 -8 -22
-20 -35 l-20 -24 6 22 c5 18 3 22 -9 17 -9 -3 -16 -1 -16 6 0 6 5 8 10 5 6 -3
10 -1 10 6 0 9 3 9 14 0 11 -9 15 -9 19 1z m7337 -2 c0 -5 -2 -10 -4 -10 -3 0
-8 5 -11 10 -3 6 -1 10 4 10 6 0 11 -4 11 -10z m70 -4 c0 -3 -4 -8 -10 -11 -5
-3 -10 -1 -10 4 0 6 5 11 10 11 6 0 10 -2 10 -4z m-7967 -61 c-8 -14 -11 -14
-21 -2 -7 8 -9 22 -6 32 6 15 8 15 21 2 11 -10 12 -20 6 -32z m508 -2 c31 -30
41 -57 11 -30 -10 10 -24 17 -31 17 -7 0 -9 5 -5 11 3 6 0 15 -7 20 -8 5 -10
9 -6 9 5 0 22 -12 38 -27z m7219 17 c0 -5 -6 -10 -14 -10 -8 0 -18 5 -21 10
-3 6 3 10 14 10 12 0 21 -4 21 -10z m-270 -64 c0 -12 -5 -7 -19 24 -11 24 -11
24 3 6 9 -11 16 -24 16 -30z m-7315 20 c14 -13 10 -26 -7 -26 -5 0 -6 5 -3 10
3 6 -4 10 -17 10 -18 0 -20 2 -8 10 19 12 19 12 35 -4z m7279 -1 c3 -8 1 -15
-4 -15 -6 0 -10 7 -10 15 0 8 2 15 4 15 2 0 6 -7 10 -15z m-7331 -9 c4 -10 1
-13 -8 -9 -8 3 -12 9 -9 14 7 12 11 11 17 -5z m7687 -6 c-8 -5 -19 -10 -25
-10 -5 0 -3 5 5 10 8 5 20 10 25 10 6 0 3 -5 -5 -10z m-50 -14 c0 -3 -4 -8
-10 -11 -5 -3 -10 -1 -10 4 0 6 5 11 10 11 6 0 10 -2 10 -4z m-7560 -16 c0 -5
-2 -10 -4 -10 -3 0 -8 5 -11 10 -3 6 -1 10 4 10 6 0 11 -4 11 -10z m7300 -21
c0 -5 -5 -9 -11 -9 -5 0 -7 5 -4 10 3 6 1 10 -4 10 -6 0 -11 5 -11 11 0 8 5 8
15 -1 8 -7 15 -16 15 -21z m-7161 -2 c-2 -1 -13 -9 -24 -17 -19 -14 -19 -14
-6 3 7 9 18 17 24 17 6 0 8 -1 6 -3z m7251 -12 c11 -13 10 -14 -4 -9 -9 3 -16
10 -16 15 0 13 6 11 20 -6z m-7073 -13 c0 -10 -7 -19 -14 -19 -16 0 -16 4 0
22 16 18 16 18 14 -3z m7072 -16 c-2 -2 -15 -9 -29 -15 -24 -11 -24 -11 -6 3
16 13 49 24 35 12z m-7122 -45 c0 -11 -7 -17 -14 -14 -9 4 -9 8 0 19 16 17 16
17 14 -5z m-3583 -1288 c11 -133 13 -127 -48 -152 -205 -85 -470 -296 -617
-491 -179 -237 -271 -463 -324 -792 -4 -26 -11 -38 -22 -38 -14 0 -15 21 -10
193 6 218 25 317 97 500 128 327 385 609 700 767 75 38 194 88 211 90 3 0 9
-34 13 -77z m14092 -1158 c319 -80 381 -223 344 -801 -6 -87 -12 -185 -14
-217 -2 -32 -5 -60 -8 -62 -2 -3 -62 70 -134 162 -142 184 -246 310 -397 481
-69 78 -98 118 -94 130 3 9 31 85 62 167 30 83 58 156 60 163 5 15 50 9 181
-23z m-13840 -32 c10 -27 38 -102 64 -169 l47 -120 -26 -30 c-260 -302 -351
-410 -421 -502 -47 -61 -88 -111 -91 -111 -12 -2 -19 78 -25 289 -14 466 42
586 306 664 121 36 125 35 146 -21z m14884 -313 c300 -61 543 -191 760 -410
211 -211 336 -441 402 -738 30 -133 32 -443 5 -572 -23 -108 -78 -272 -115
-346 l-29 -58 -43 74 -42 73 12 71 c6 39 14 130 17 202 32 769 -497 1456
-1257 1634 -52 12 -98 27 -102 33 -12 19 -9 55 5 61 27 13 286 -3 387 -24z
m-15639 -385 c3 -93 12 -274 19 -401 15 -271 27 -226 -119 -452 -50 -79 -134
-216 -186 -305 -52 -89 -98 -169 -103 -177 -7 -12 -26 -6 -113 37 -108 53
-153 67 -255 78 -66 8 -177 -6 -250 -31 -25 -8 -48 -14 -50 -11 -2 2 -25 150
-49 328 -25 178 -56 399 -69 490 -33 230 -21 293 74 393 82 86 97 91 595 161
242 35 454 62 470 62 l30 -2 6 -170z m-650 -1562 c36 -18 73 -40 82 -50 14
-17 14 -21 -10 -58 -22 -36 -24 -33 -12 14 2 7 -2 16 -10 19 -8 3 -11 0 -7 -7
4 -6 3 -11 -3 -11 -5 0 -11 5 -13 11 -2 7 -20 4 -51 -8 -26 -11 -45 -22 -42
-25 3 -3 -1 -8 -10 -12 -9 -3 -13 -2 -10 4 12 19 -9 10 -30 -13 -11 -13 -16
-16 -10 -7 11 18 -27 -13 -63 -50 -13 -14 -20 -18 -16 -10 4 8 -5 4 -20 -10
-15 -13 -23 -26 -17 -28 6 -2 -2 -15 -16 -28 -23 -22 -25 -28 -15 -45 7 -11 8
-19 2 -19 -5 0 -10 5 -10 10 0 6 -5 10 -10 10 -7 0 -6 -8 1 -22 11 -20 10 -21
-2 -11 -12 10 -20 2 -44 -45 -17 -31 -36 -63 -42 -70 -7 -7 -13 -18 -13 -25 0
-6 7 -2 15 9 8 10 15 15 15 10 0 -4 -18 -26 -40 -47 -27 -27 -38 -44 -33 -55
5 -13 3 -15 -7 -9 -8 5 -11 4 -6 -3 3 -6 0 -17 -8 -25 -26 -26 -101 -156 -116
-202 -6 -19 -16 -35 -20 -35 -5 0 -14 -10 -21 -21 -8 -15 -8 -19 0 -15 6 4 11
3 11 -2 0 -13 -25 -33 -32 -26 -3 3 -18 -19 -33 -48 -15 -29 -38 -71 -51 -93
-13 -22 -33 -58 -45 -80 -12 -22 -30 -51 -39 -65 -26 -37 -29 -66 -7 -62 17 3
17 2 0 -15 -11 -12 -21 -15 -25 -9 -8 12 -8 13 -37 -37 -14 -22 -21 -46 -18
-59 4 -15 3 -18 -5 -10 -8 8 -14 5 -23 -11 -7 -12 -31 -53 -54 -90 -34 -55
-40 -71 -30 -83 10 -12 9 -13 -4 -8 -12 4 -20 -2 -27 -21 -6 -15 -8 -30 -5
-35 3 -5 1 -10 -5 -12 -5 -1 -12 -30 -15 -62 -2 -32 -9 -64 -14 -69 -21 -21
-99 78 -122 155 -13 44 -13 136 0 184 13 47 736 1302 781 1357 70 83 151 118
265 115 67 -3 91 -8 146 -35z m16746 -24 c34 -17 75 -45 90 -64 15 -18 87
-136 159 -262 73 -125 238 -412 368 -637 130 -225 244 -431 253 -458 20 -62
13 -146 -17 -211 -24 -52 -38 -57 -65 -27 -10 11 -15 20 -10 20 4 0 14 -8 21
-17 7 -10 14 -13 14 -6 0 6 -7 19 -16 27 -8 9 -12 16 -7 16 4 0 2 4 -5 8 -7 5
-14 18 -17 30 -5 30 -15 43 -26 37 -5 -4 -9 5 -9 18 0 30 -10 40 -25 27 -9 -8
-11 -4 -8 15 6 28 -27 91 -59 113 -10 8 -17 20 -14 28 3 8 1 14 -4 14 -6 0
-10 7 -10 15 0 8 -4 15 -9 15 -5 0 -11 10 -13 23 -2 12 -10 22 -18 22 -16 0
-30 14 -30 29 0 5 7 3 15 -4 24 -20 17 5 -10 34 -13 14 -23 28 -22 30 1 2 -7
15 -18 30 l-20 26 -18 -22 -18 -23 12 25 c7 14 17 28 23 32 7 5 7 8 -2 8 -7 0
-11 4 -7 9 3 5 1 12 -5 16 -5 3 -18 26 -29 50 -11 25 -25 45 -30 45 -6 0 -10
4 -8 8 3 14 -67 135 -71 122 -2 -6 1 -17 8 -25 9 -11 9 -18 0 -32 -11 -17 -11
-17 -6 1 4 10 1 25 -5 32 -6 8 -9 23 -6 34 3 11 1 20 -5 20 -5 0 -6 6 -3 13 4
6 -1 3 -10 -8 -17 -20 -17 -20 -10 3 7 25 -12 85 -25 77 -4 -3 -11 2 -14 11
-4 10 -2 13 6 8 7 -4 8 -3 4 4 -4 7 -14 12 -22 12 -8 0 -14 5 -14 11 0 5 5 7
12 3 13 -9 5 8 -28 52 -13 17 -20 34 -17 38 4 3 2 6 -4 6 -6 0 -14 11 -17 25
-4 14 -11 25 -17 25 -6 0 -7 5 -3 12 5 8 2 9 -12 4 -10 -4 -15 -4 -12 0 11 10
-16 66 -45 98 -15 16 -26 31 -25 35 3 23 -6 43 -31 75 l-29 36 -16 -23 c-16
-22 -16 -22 -6 0 13 28 14 55 1 34 -6 -10 -12 -6 -21 16 -15 34 -71 78 -80 63
-4 -6 -14 -4 -26 5 -16 13 -16 14 -1 9 36 -13 15 6 -29 27 -37 16 -52 19 -70
10 -17 -7 -25 -7 -30 1 -5 7 -3 8 6 3 9 -5 11 -4 6 3 -4 7 -16 12 -26 12 -21
0 -50 36 -50 62 0 11 19 27 51 44 101 51 184 52 286 3z m-16717 -135 c0 -8 -5
-12 -10 -9 -6 4 -8 11 -5 16 9 14 15 11 15 -7z m-115 -4 c3 -5 -1 -10 -10 -10
-9 0 -13 5 -10 10 3 6 8 10 10 10 2 0 7 -4 10 -10z m16625 0 c0 -5 -2 -10 -4
-10 -3 0 -8 5 -11 10 -3 6 -1 10 4 10 6 0 11 -4 11 -10z m35 -10 c3 -5 2 -10
-4 -10 -5 0 -13 5 -16 10 -3 6 -2 10 4 10 5 0 13 -4 16 -10z m-16553 -34 c7 4
8 2 4 -5 -9 -13 -26 -5 -25 12 0 9 2 8 6 -1 2 -6 10 -9 15 -6z m-38 -61 c-7
-17 -20 -20 -28 -6 -7 10 3 21 20 21 8 0 11 -6 8 -15z m16709 -15 c-7 -8 -52
-7 -47 1 2 4 15 6 28 5 13 0 22 -3 19 -6z m-158 -10 c3 -5 1 -10 -4 -10 -6 0
-11 5 -11 10 0 6 2 10 4 10 3 0 8 -4 11 -10z m-16581 -26 c9 -23 7 -34 -4 -34
-5 0 -7 7 -4 15 4 8 1 15 -5 15 -6 0 -11 5 -11 10 0 16 17 12 24 -6z m16554
-39 c-3 -3 -9 2 -12 12 -6 14 -5 15 5 6 7 -7 10 -15 7 -18z m-16767 -8 c-10
-9 -11 -8 -5 6 3 10 9 15 12 12 3 -3 0 -11 -7 -18z m16786 1 c-3 -8 -6 -5 -6
6 -1 11 2 17 5 13 3 -3 4 -12 1 -19z m30 1 c2 -16 -1 -19 -9 -11 -5 5 -7 15
-4 21 10 15 12 14 13 -10z m203 11 c0 -5 -4 -10 -10 -10 -5 0 -10 5 -10 10 0
6 5 10 10 10 6 0 10 -4 10 -10z m34 -6 c3 -8 2 -12 -4 -9 -6 3 -10 10 -10 16
0 14 7 11 14 -7z m24 -89 c-3 -3 -9 2 -12 12 -6 14 -5 15 5 6 7 -7 10 -15 7
-18z m-250 -40 c-3 -3 -9 2 -12 12 -6 14 -5 15 5 6 7 -7 10 -15 7 -18z m292
-7 c0 -6 -3 -8 -7 -5 -3 4 -12 2 -20 -4 -8 -8 -13 -8 -13 -1 0 10 15 19 33 21
4 1 7 -4 7 -11z m-16980 -38 c0 -5 -2 -10 -4 -10 -3 0 -8 5 -11 10 -3 6 -1 10
4 10 6 0 11 -4 11 -10z m16730 -26 c12 -19 19 -38 16 -42 -4 -3 -9 4 -13 16
-3 12 -9 22 -13 22 -4 0 -10 9 -13 20 -7 29 -2 25 23 -16z m23 19 c-3 -7 -6
-13 -8 -13 -2 0 -5 6 -8 13 -3 8 1 14 8 14 7 0 11 -6 8 -14z m-17040 -45 c-9
-20 -10 -20 -10 10 0 22 4 29 10 23 7 -7 7 -18 0 -33z m17331 -40 c-3 -5 3
-12 15 -15 12 -3 21 -9 21 -14 0 -12 -33 2 -47 20 -17 22 -16 32 2 25 8 -4 12
-10 9 -16z m26 -58 c0 -5 -8 -10 -17 -10 -15 0 -16 2 -3 10 19 12 20 12 20 0z
m17 -22 c-3 -8 -6 -5 -6 6 -1 11 2 17 5 13 3 -3 4 -12 1 -19z m-17454 -13 c-3
-9 -8 -14 -10 -11 -3 3 -2 9 2 15 9 16 15 13 8 -4z m17467 -9 c0 -3 -4 -8 -10
-11 -5 -3 -10 -1 -10 4 0 6 5 11 10 11 6 0 10 -2 10 -4z m-17480 -26 c0 -4 -6
-10 -13 -13 -7 -3 -13 3 -13 13 0 10 6 16 13 13 7 -3 13 -9 13 -13z m245 -80
c-4 -6 -8 -21 -11 -34 -2 -14 -9 -35 -14 -48 -8 -19 -9 -15 -4 17 6 40 20 75
30 75 3 0 2 -5 -1 -10z m-319 -39 c0 -16 -3 -17 -14 -9 -12 10 -7 19 13 28 1
0 1 -9 1 -19z m17626 -23 c-7 -7 -12 -8 -12 -2 0 14 12 26 19 19 2 -3 -1 -11
-7 -17z m-17432 -47 c0 -6 -4 -13 -10 -16 -5 -3 -10 1 -10 9 0 9 5 16 10 16 6
0 10 -4 10 -9z m75 -1 c3 -5 1 -10 -4 -10 -6 0 -11 5 -11 10 0 6 2 10 4 10 3
0 8 -4 11 -10z m17109 2 c-5 -4 -12 -11 -15 -15 -3 -5 -9 -2 -12 5 -3 9 3 14
15 15 11 1 16 -1 12 -5z m-17439 -31 c3 -5 1 -12 -5 -16 -5 -3 -10 1 -10 9 0
18 6 21 15 7z m326 -18 c-8 -15 -10 -15 -11 -2 0 17 10 32 18 25 2 -3 -1 -13
-7 -23z m17409 3 c0 -3 -4 -8 -10 -11 -5 -3 -10 -1 -10 4 0 6 5 11 10 11 6 0
10 -2 10 -4z m-17450 -26 c0 -5 -4 -10 -10 -10 -5 0 -10 5 -10 10 0 6 5 10 10
10 6 0 10 -4 10 -10z m17190 -6 c0 -8 -5 -12 -10 -9 -6 4 -8 11 -5 16 9 14 15
11 15 -7z m-17487 -19 c-3 -9 -8 -14 -10 -11 -3 3 -2 9 2 15 9 16 15 13 8 -4z
m307 -5 c0 -5 -8 -10 -17 -10 -15 0 -16 2 -3 10 19 12 20 12 20 0z m-330 -24
c0 -11 -19 -15 -25 -6 -3 5 1 10 9 10 9 0 16 -2 16 -4z m309 -26 c11 -24 11
-24 -3 -6 -9 11 -16 24 -16 30 0 12 5 7 19 -24z m-239 16 c0 -2 -7 -6 -15 -10
-8 -3 -15 -1 -15 4 0 6 7 10 15 10 8 0 15 -2 15 -4z m-125 -51 c0 -13 -1 -22
-4 -20 -2 3 -9 -2 -15 -11 -10 -13 -12 -13 -12 5 0 11 5 17 10 14 5 -4 7 1 3
10 -3 10 -2 17 4 17 6 0 7 6 3 13 -4 6 -3 9 1 4 5 -4 9 -18 10 -32z m17588
-39 c3 -8 0 -19 -7 -26 -10 -8 -15 -6 -20 6 -7 17 0 34 14 34 4 0 10 -6 13
-14z m-17272 -95 c-8 -5 -10 -14 -6 -22 6 -11 5 -11 -5 -2 -14 12 -6 33 13 33
8 0 7 -3 -2 -9z m-24 -60 c-1 -18 -9 -32 -19 -34 -20 -6 -30 15 -16 34 8 11 9
10 4 -3 -3 -10 -1 -18 4 -18 5 0 12 11 16 25 8 34 14 32 11 -4z m17340 -23
c-3 -8 -6 -5 -6 6 -1 11 2 17 5 13 3 -3 4 -12 1 -19z m33 -45 c-11 -17 -11
-17 -6 0 3 10 6 24 7 30 0 9 2 9 5 0 3 -7 0 -20 -6 -30z m-17400 -24 c0 -6 -4
-7 -10 -4 -5 3 -10 11 -10 16 0 6 5 7 10 4 6 -3 10 -11 10 -16z m-438 -14 c-2
-14 -9 -25 -14 -25 -5 0 -7 3 -5 8 2 4 7 15 10 25 9 25 15 21 9 -8z m17848 -3
c0 -5 -7 -9 -15 -9 -8 0 -12 4 -9 9 3 4 9 8 15 8 5 0 9 -4 9 -8z m435 -52 c3
-5 2 -10 -4 -10 -5 0 -13 5 -16 10 -3 6 -2 10 4 10 5 0 13 -4 16 -10z m-17871
-16 c3 -8 2 -12 -4 -9 -6 3 -10 10 -10 16 0 14 7 11 14 -7z m-454 -20 c0 -8
-4 -12 -10 -9 -5 3 -10 10 -10 16 0 5 5 9 10 9 6 0 10 -7 10 -16z m17910 2 c0
-3 -4 -8 -10 -11 -5 -3 -10 -1 -10 4 0 6 5 11 10 11 6 0 10 -2 10 -4z m-17460
-16 c0 -5 -5 -10 -11 -10 -5 0 -7 5 -4 10 3 6 8 10 11 10 2 0 4 -4 4 -10z
m17958 -41 c-3 -8 -7 -3 -11 10 -4 17 -3 21 5 13 5 -5 8 -16 6 -23z m-18011
-1 c-3 -8 -6 -5 -6 6 -1 11 2 17 5 13 3 -3 4 -12 1 -19z m30 -10 c-3 -8 -6 -5
-6 6 -1 11 2 17 5 13 3 -3 4 -12 1 -19z m17533 -42 c0 -11 -7 -29 -15 -39 -13
-18 -14 -16 -24 19 -6 21 -9 40 -6 42 2 2 8 -11 13 -29 8 -28 11 -31 17 -16 4
10 2 30 -4 44 -11 23 -10 25 3 13 9 -7 16 -22 16 -34z m-17540 19 c4 3 6 -5 2
-17 -5 -21 -6 -21 -13 -2 -4 10 -8 24 -8 29 1 6 3 4 6 -3 2 -6 8 -10 13 -7z
m17534 -100 c-4 -8 -8 -15 -10 -15 -2 0 -4 7 -4 15 0 8 4 15 10 15 5 0 7 -7 4
-15z m521 6 c3 -5 1 -12 -5 -16 -5 -3 -10 1 -10 9 0 18 6 21 15 7z m-18088
-43 c-3 -8 -6 -5 -6 6 -1 11 2 17 5 13 3 -3 4 -12 1 -19z m18013 12 c0 -5 -2
-10 -4 -10 -3 0 -8 5 -11 10 -3 6 -1 10 4 10 6 0 11 -4 11 -10z m31 -25 c0 -6
-10 -16 -23 -24 -23 -13 -22 -13 1 6 16 13 20 22 12 26 -6 3 -7 5 0 4 6 -2 10
-7 10 -12z m-18069 -37 c-7 -7 -12 -21 -12 -32 0 -10 -3 -17 -6 -13 -10 10 5
57 18 57 9 0 9 -3 0 -12z m17618 -8 c0 -5 -2 -10 -4 -10 -3 0 -8 5 -11 10 -3
6 -1 10 4 10 6 0 11 -4 11 -10z m-18010 -20 c0 -5 -5 -10 -11 -10 -5 0 -7 5
-4 10 3 6 8 10 11 10 2 0 4 -4 4 -10z m18290 -14 c0 -2 -9 -6 -20 -9 -11 -3
-18 -1 -14 4 5 9 34 13 34 5z m-18210 -16 c0 -5 -7 -7 -15 -4 -8 4 -15 8 -15
10 0 2 7 4 15 4 8 0 15 -4 15 -10z m310 -10 c0 -5 -5 -10 -11 -10 -5 0 -7 5
-4 10 3 6 8 10 11 10 2 0 4 -4 4 -10z m-50 -10 c0 -5 -4 -10 -10 -10 -5 0 -10
5 -10 10 0 6 5 10 10 10 6 0 10 -4 10 -10z m-175 -20 c-3 -5 -12 -10 -18 -10
-7 0 -6 4 3 10 19 12 23 12 15 0z m17933 -26 c0 -18 -3 -22 -9 -13 -11 18 -11
39 0 39 5 0 9 -12 9 -26z m82 -9 c0 -12 -19 -12 -23 0 -4 9 -1 12 9 8 7 -3 14
-7 14 -8z m-17946 -8 c11 -8 17 -18 15 -23 -2 -5 -14 1 -26 14 -24 24 -17 30
11 9z m113 -94 c-3 -2 -14 0 -24 7 -16 10 -16 11 0 6 9 -3 17 0 18 7 0 8 2 8
6 -1 3 -7 3 -16 0 -19z m5171 -784 c480 -52 942 -326 1189 -706 110 -168 161
-314 170 -483 11 -213 -56 -344 -233 -448 -71 -42 -226 -99 -283 -104 l-32 -3
-83 185 c-46 102 -102 225 -124 275 -23 50 -43 83 -46 75 -2 -8 -7 -60 -10
-115 -7 -140 -28 -470 -30 -472 -3 -4 -263 -22 -403 -28 l-142 -6 -6 23 c-36
158 -137 574 -140 576 -3 3 -15 -47 -100 -406 -24 -101 -46 -186 -48 -189 -7
-6 -423 15 -532 28 -49 5 -93 13 -97 17 -4 4 -9 138 -10 297 l-3 290 -86 -160
c-48 -88 -112 -208 -144 -267 -31 -60 -59 -108 -61 -108 -2 0 -33 11 -69 25
-270 101 -385 244 -385 476 0 304 189 630 511 881 345 269 775 393 1197 347z
m7837 -19 c583 -117 1091 -549 1206 -1025 22 -95 25 -246 5 -320 -41 -156
-160 -267 -364 -339 -40 -14 -81 -26 -91 -26 -14 0 -38 44 -99 182 -44 101
-99 221 -120 268 l-40 85 -6 -45 c-4 -25 -13 -157 -21 -294 -8 -137 -17 -251
-19 -253 -8 -8 -181 -23 -384 -33 -242 -13 -233 -15 -247 58 -11 60 -115 495
-123 516 -6 13 -14 -8 -30 -75 -12 -52 -44 -186 -71 -299 l-48 -205 -129 3
c-152 3 -424 21 -474 31 l-35 7 -5 289 -5 290 -54 -100 c-29 -55 -92 -172
-139 -260 -46 -88 -86 -161 -87 -163 -6 -7 -135 42 -199 76 -223 117 -305 312
-247 587 42 194 147 379 316 554 277 288 622 460 1022 511 108 14 374 3 488
-20z"/>
<path d="M3949 10031 c-34 -34 -39 -44 -39 -85 0 -62 10 -80 81 -146 l60 -55
-21 -86 c-30 -128 -66 -352 -86 -534 -24 -223 -24 -715 -1 -953 29 -285 105
-701 142 -771 26 -52 104 -82 157 -62 15 5 100 74 190 153 358 314 796 640
1187 881 68 42 101 85 101 135 0 67 23 44 -565 582 -170 156 -368 338 -440
404 -170 156 -227 208 -305 280 -36 33 -105 98 -155 146 -154 146 -159 150
-217 150 -45 0 -54 -4 -89 -39z m746 -887 c352 -321 608 -556 649 -595 18 -16
15 -19 -75 -80 -94 -63 -303 -210 -447 -316 -87 -64 -374 -293 -472 -377 -43
-36 -67 -51 -71 -43 -10 18 -46 244 -66 412 -22 189 -25 778 -5 950 14 114 58
389 67 414 4 11 10 10 28 -6 12 -11 189 -172 392 -359z"/>
<path d="M16223 10057 c-11 -7 -83 -70 -160 -142 -76 -71 -431 -399 -789 -728
-358 -329 -656 -609 -663 -623 -16 -37 -13 -85 8 -119 11 -20 81 -71 193 -143
382 -244 745 -516 1065 -799 175 -154 213 -179 267 -169 82 16 103 59 155 316
128 629 132 1312 11 1911 -16 80 -32 152 -35 160 -4 10 18 40 63 85 52 52 71
79 76 107 9 50 -21 120 -63 141 -36 19 -97 20 -128 3z m-160 -634 c80 -459 90
-907 31 -1378 -14 -116 -40 -272 -50 -307 -4 -13 -39 11 -162 113 -249 207
-571 448 -811 606 -62 41 -110 78 -105 82 9 7 111 101 219 201 120 110 665
610 719 660 34 30 77 70 96 87 19 18 38 33 41 33 3 0 13 -44 22 -97z"/>
<path d="M6837 8154 c-177 -32 -321 -109 -458 -244 -81 -80 -103 -109 -137
-180 -47 -97 -61 -154 -40 -162 7 -3 47 11 88 32 326 159 568 218 845 207 200
-8 350 -45 561 -138 110 -48 127 -45 105 19 -42 119 -181 278 -312 355 -188
111 -428 152 -652 111z"/>
<path d="M13013 8156 c-278 -53 -501 -212 -605 -432 -25 -55 -29 -94 -9 -94 4
0 48 17 97 39 119 51 250 95 354 117 129 28 420 26 553 -4 146 -32 295 -85
446 -158 84 -40 138 -61 144 -55 26 26 -51 201 -131 297 -103 123 -278 231
-447 275 -103 27 -301 34 -402 15z"/>
<path d="M7096 6915 c-268 -56 -495 -210 -647 -439 -216 -327 -213 -777 9
-1103 284 -418 832 -560 1282 -333 101 51 160 95 253 187 132 131 215 276 263
458 23 85 27 121 27 245 1 165 -16 256 -75 396 -117 277 -372 497 -665 575
-102 27 -346 35 -447 14z m669 -434 c153 -69 205 -328 95 -479 -61 -84 -158
-121 -246 -92 -54 18 -128 91 -155 153 -18 41 -23 71 -23 138 0 77 3 93 32
152 63 128 184 180 297 128z m-745 -768 c15 -9 38 -34 50 -55 18 -33 21 -51
18 -104 -5 -73 -25 -108 -80 -138 -104 -57 -213 83 -169 217 27 81 115 120
181 80z"/>
<path d="M12700 6911 c-319 -71 -565 -266 -700 -554 -175 -373 -105 -806 177
-1107 386 -410 1017 -427 1422 -36 173 167 277 385 300 624 45 485 -253 920
-724 1058 -124 36 -348 43 -475 15z m75 -430 c52 -24 98 -74 127 -136 32 -70
33 -218 2 -286 -82 -177 -260 -212 -381 -75 -159 181 -54 514 162 515 28 0 68
-8 90 -18z m692 -771 c85 -51 94 -196 17 -271 -29 -28 -43 -34 -79 -34 -37 0
-50 6 -80 35 -56 55 -70 132 -35 207 34 75 112 103 177 63z"/>
<path d="M9820 5430 c-321 -18 -521 -67 -637 -156 -150 -114 -105 -355 107
-574 134 -139 306 -235 519 -289 l106 -27 0 -149 c-1 -136 -3 -157 -27 -223
-39 -108 -84 -178 -168 -262 -126 -127 -263 -183 -440 -182 -322 2 -546 182
-634 511 -18 66 -34 103 -53 124 -84 89 -233 72 -292 -33 -21 -37 -23 -51 -18
-109 3 -36 18 -102 32 -146 108 -325 321 -551 613 -651 104 -36 259 -64 354
-64 197 0 428 76 583 193 61 46 187 171 218 217 l17 24 17 -24 c30 -44 146
-161 206 -207 330 -255 813 -267 1170 -30 138 93 266 244 337 400 47 104 81
219 86 292 4 61 2 75 -18 110 -64 108 -225 116 -300 14 -11 -14 -31 -66 -44
-115 -85 -301 -271 -468 -560 -504 -271 -34 -537 119 -656 378 -47 103 -58
169 -51 313 l6 127 61 12 c366 70 676 309 736 569 57 245 -160 399 -635 451
-132 14 -469 20 -635 10z"/>
<path d="M13430 10279 c0 -5 5 -7 10 -4 6 3 10 8 10 11 0 2 -4 4 -10 4 -5 0
-10 -5 -10 -11z"/>
<path d="M6150 10010 c0 -5 5 -10 10 -10 6 0 10 5 10 10 0 6 -4 10 -10 10 -5
0 -10 -4 -10 -10z"/>
<path d="M18710 3900 c0 -5 5 -10 11 -10 5 0 7 5 4 10 -3 6 -8 10 -11 10 -2 0
-4 -4 -4 -10z"/>
</g>
</svg>
