<?xml version="1.0" standalone="no"?>
<!DOCTYPE svg PUBLIC "-//W3C//DTD SVG 20010904//EN"
 "http://www.w3.org/TR/2001/REC-SVG-20010904/DTD/svg10.dtd">
<svg version="1.0" xmlns="http://www.w3.org/2000/svg"
 width="500.000000pt" height="500.000000pt" viewBox="0 0 500.000000 500.000000"
 preserveAspectRatio="xMidYMid meet">

<g transform="translate(0.000000,500.000000) scale(0.100000,-0.100000)"
fill="#000000" stroke="none">
<path d="M1594 3950 c-115 -23 -242 -97 -349 -205 -218 -218 -285 -523 -147
-668 105 -111 195 -71 429 190 53 59 145 158 204 219 157 162 213 257 194 331
-4 16 -26 47 -50 70 -68 64 -164 86 -281 63z"/>
<path d="M3245 3954 c-113 -29 -185 -95 -185 -171 1 -70 50 -141 220 -318 63
-66 150 -161 193 -210 98 -114 210 -212 258 -226 121 -37 231 81 230 246 0 97
-14 152 -67 260 -110 229 -343 403 -561 419 -38 2 -77 2 -88 0z"/>
<path d="M1832 3500 c-48 -22 -59 -39 -42 -70 11 -21 12 -21 43 -2 53 31 80
33 122 12 46 -23 59 -25 73 -7 16 19 -12 55 -54 73 -46 19 -91 17 -142 -6z"/>
<path d="M2995 3506 c-47 -21 -69 -50 -56 -75 12 -21 28 -20 66 6 26 17 86 17
111 -2 22 -17 43 -19 63 -6 12 8 12 13 -3 36 -33 50 -118 69 -181 41z"/>
<path d="M1833 3305 c-118 -59 -154 -202 -79 -313 45 -67 103 -95 188 -90 55
3 75 9 110 34 95 66 122 193 63 289 -60 97 -179 131 -282 80z"/>
<path d="M2959 3302 c-145 -75 -156 -272 -21 -367 40 -27 51 -30 121 -30 68 0
83 3 119 27 97 65 127 197 66 295 -37 60 -114 103 -184 103 -33 0 -64 -9 -101
-28z"/>
<path d="M788 3123 c-24 -14 -54 -34 -67 -46 -81 -74 -81 -249 0 -324 14 -12
54 -36 91 -52 l66 -30 277 6 277 6 -7 46 c-4 25 -8 47 -9 48 -2 2 -27 -4 -56
-13 -63 -19 -41 -39 -187 173 l-98 141 -65 12 c-36 6 -91 22 -122 34 l-57 23
-43 -24z"/>
<path d="M4069 3105 c-20 -7 -66 -16 -103 -20 -36 -4 -70 -12 -75 -19 -5 -6
-46 -80 -91 -163 -91 -170 -77 -160 -174 -126 -22 7 -41 12 -42 10 -2 -2 -6
-29 -10 -60 l-7 -57 298 0 297 0 64 30 c85 41 109 76 108 156 -1 77 -31 142
-87 188 -79 63 -127 80 -178 61z"/>
<path d="M2402 3034 c-133 -36 -248 -145 -292 -279 -33 -99 -26 -225 18 -315
61 -127 180 -217 319 -241 174 -31 365 73 445 240 43 91 51 217 18 315 -26 78
-91 171 -146 207 -78 52 -95 59 -156 74 -77 18 -136 18 -206 -1z m208 -44 c11
-11 20 -24 20 -29 0 -16 -31 -41 -50 -41 -19 0 -50 25 -50 41 0 12 37 49 50
49 6 0 19 -9 30 -20z"/>
<path d="M3655 2541 c-34 -21 -80 -74 -182 -211 -38 -52 -122 -149 -187 -214
-64 -66 -116 -121 -116 -124 0 -8 591 7 710 18 135 12 254 34 327 62 61 22
119 82 128 130 7 38 -8 116 -31 160 l-16 30 -31 -30 c-63 -60 -137 -69 -208
-24 -24 16 -85 64 -134 106 -136 117 -193 139 -260 97z"/>
<path d="M728 2463 c-47 -48 -68 -99 -68 -161 0 -130 69 -206 227 -247 138
-37 256 -47 600 -52 l343 -5 -89 88 c-48 49 -106 117 -129 150 -41 62 -114
200 -127 242 -10 35 -16 33 -215 -61 -163 -76 -212 -91 -300 -91 -132 1 -189
38 -200 130 l-5 45 -37 -38z"/>
</g>
</svg>
